<?xml version="1.0" encoding="utf-8"?>
<!-- Generator: Adobe Illustrator 16.2.0, SVG Export Plug-In . SVG Version: 6.00 Build 0)  -->
<!DOCTYPE svg PUBLIC "-//W3C//DTD SVG 1.1//EN" "http://www.w3.org/Graphics/SVG/1.1/DTD/svg11.dtd">
<svg version="1.1" id="Layer_1" xmlns="http://www.w3.org/2000/svg" xmlns:xlink="http://www.w3.org/1999/xlink" x="0px" y="0px"
	 width="277.584px" height="277.585px" viewBox="0 0 277.584 277.585" enable-background="new 0 0 277.584 277.585"
	 xml:space="preserve">
<g>
	<polygon fill-rule="evenodd" clip-rule="evenodd" fill="#FF6699" points="222.068,0 249.826,0 249.826,27.759 222.068,27.759 
		222.068,0 	"/>
	<path fill-rule="evenodd" clip-rule="evenodd" fill="#FFFFCC" d="M235.947,22.955c0.464-4.795,4.279-8.61,9.075-9.074
		c-4.796-0.465-8.612-4.28-9.075-9.077c-0.463,4.797-4.279,8.612-9.075,9.077C231.667,14.345,235.483,18.16,235.947,22.955
		L235.947,22.955z"/>
	<polygon fill-rule="evenodd" clip-rule="evenodd" fill="#E6E6E6" points="194.309,55.518 222.067,55.518 222.067,27.759 
		194.309,27.759 194.309,55.518 	"/>
	<polygon fill-rule="evenodd" clip-rule="evenodd" fill="#F07233" points="194.309,55.518 180.43,55.518 180.43,41.638 
		194.309,41.638 194.309,55.518 	"/>
	<polygon fill-rule="evenodd" clip-rule="evenodd" fill="#F07233" points="180.43,41.638 166.551,41.638 166.551,27.759 
		180.43,27.759 180.43,41.638 	"/>
	<polygon fill-rule="evenodd" clip-rule="evenodd" fill="#CC99FF" points="166.551,83.275 194.309,83.275 194.309,55.518 
		166.551,55.518 166.551,83.275 	"/>
	<polygon fill-rule="evenodd" clip-rule="evenodd" fill="#C2F3FF" points="138.792,83.275 166.551,83.275 166.551,55.518 
		138.792,55.518 138.792,83.275 	"/>
	<polygon fill-rule="evenodd" clip-rule="evenodd" fill="#FFFFFF" points="249.826,83.275 277.584,83.275 277.584,55.518 
		249.826,55.518 249.826,83.275 	"/>
	<polygon fill-rule="evenodd" clip-rule="evenodd" fill="#FFFFCC" points="249.826,111.034 277.584,111.034 263.705,97.155 
		249.826,111.034 	"/>
	<polygon fill-rule="evenodd" clip-rule="evenodd" fill="#FF5792" points="249.826,83.275 277.584,83.275 263.705,97.155 
		249.826,83.275 	"/>
	<polygon fill-rule="evenodd" clip-rule="evenodd" fill="#FECD4D" points="249.826,83.275 249.826,111.034 263.705,97.155 
		249.826,83.275 	"/>
	<polygon fill-rule="evenodd" clip-rule="evenodd" fill="#9CE9FC" points="277.584,83.275 277.584,111.034 263.705,97.155 
		277.584,83.275 	"/>
	<polygon fill-rule="evenodd" clip-rule="evenodd" fill="#FECD4D" points="194.309,111.034 194.309,138.793 166.551,138.793 
		166.551,111.034 194.309,111.034 	"/>
	<path fill-rule="evenodd" clip-rule="evenodd" fill="#CC99FF" d="M191.616,124.913c0,6.179-5.008,11.187-11.187,11.187
		c-6.178,0-11.186-5.008-11.186-11.187c0-6.178,5.008-11.186,11.186-11.186C186.608,113.728,191.616,118.735,191.616,124.913
		L191.616,124.913z"/>
	<path fill-rule="evenodd" clip-rule="evenodd" fill="#FFCCCC" d="M186.308,124.913c0,3.247-2.632,5.879-5.878,5.879
		c-3.246,0-5.878-2.632-5.878-5.879c0-3.246,2.632-5.878,5.878-5.878C183.676,119.035,186.308,121.667,186.308,124.913
		L186.308,124.913z"/>
	<polygon fill-rule="evenodd" clip-rule="evenodd" fill="#CD49FD" points="138.792,111.034 166.551,111.034 166.551,138.793 
		138.792,138.793 138.792,111.034 	"/>
	<path fill-rule="evenodd" clip-rule="evenodd" fill="#FAF7F2" d="M162.209,130.42L162.209,130.42
		c-1.089,1.887-3.46,2.597-5.394,1.671c-0.165,2.138-1.965,3.836-4.144,3.836l0,0c-2.178,0-3.979-1.698-4.144-3.836
		c-1.934,0.926-4.305,0.216-5.394-1.671l0,0c-1.089-1.887-0.519-4.295,1.25-5.507c-1.769-1.211-2.34-3.62-1.25-5.506l0,0
		c1.089-1.887,3.46-2.597,5.394-1.671c0.165-2.138,1.965-3.836,4.144-3.836l0,0c2.178,0,3.979,1.698,4.144,3.836
		c1.934-0.926,4.305-0.216,5.394,1.671l0,0c1.089,1.886,0.519,4.295-1.25,5.506C162.728,126.125,163.298,128.533,162.209,130.42
		L162.209,130.42z"/>
	<path fill-rule="evenodd" clip-rule="evenodd" fill="#FF6699" d="M152.671,119.874c2.783,0,5.039,2.257,5.039,5.039
		c0,2.783-2.256,5.039-5.039,5.039c-2.783,0-5.039-2.256-5.039-5.039C147.632,122.131,149.889,119.874,152.671,119.874
		L152.671,119.874z"/>
	<polygon fill-rule="evenodd" clip-rule="evenodd" fill="#FFCCCC" points="138.792,83.275 166.551,83.275 166.551,111.034 
		138.792,111.034 138.792,83.275 	"/>
	<polygon fill-rule="evenodd" clip-rule="evenodd" fill="#E6E6E6" points="166.551,83.275 194.309,83.275 194.309,111.034 
		166.551,111.034 166.551,83.275 	"/>
	<polygon fill-rule="evenodd" clip-rule="evenodd" fill="#FFF28F" points="194.309,83.275 222.068,83.275 222.068,111.034 
		194.309,111.034 194.309,83.275 	"/>
	<polygon fill-rule="evenodd" clip-rule="evenodd" fill="#CD49FD" points="222.067,83.275 249.826,83.275 249.826,111.034 
		222.067,111.034 222.067,83.275 	"/>
	<polygon fill-rule="evenodd" clip-rule="evenodd" fill="#FFCCCC" points="249.826,83.275 277.584,83.275 277.584,55.518 
		249.826,55.518 249.826,83.275 	"/>
	<polygon fill-rule="evenodd" clip-rule="evenodd" fill="#855CFF" points="194.309,83.275 222.067,83.275 222.067,55.518 
		194.309,55.518 194.309,83.275 	"/>
	<polygon fill-rule="evenodd" clip-rule="evenodd" fill="#A485FF" points="166.551,27.759 194.309,27.759 194.309,0 166.551,0 
		166.551,27.759 	"/>
	<polygon fill-rule="evenodd" clip-rule="evenodd" fill="#FEA698" points="194.309,27.759 222.067,27.759 222.067,0 194.309,0 
		194.309,27.759 	"/>
	<path fill-rule="evenodd" clip-rule="evenodd" fill="#FFFFFF" d="M199.938,22.798l7.779-7.778v11.001
		c0.157,0.006,0.314,0.01,0.472,0.01s0.315-0.004,0.472-0.01V15.02l7.779,7.778c0.231-0.214,0.454-0.437,0.667-0.667l-7.779-7.779
		h11.001c0.006-0.156,0.01-0.313,0.01-0.472s-0.004-0.315-0.01-0.473h-11.001l7.779-7.778c-0.214-0.231-0.437-0.454-0.667-0.668
		l-7.779,7.779V1.738c-0.157-0.006-0.314-0.01-0.472-0.01s-0.315,0.004-0.472,0.01V12.74l-7.779-7.779
		c-0.231,0.214-0.454,0.437-0.668,0.668l7.779,7.778h-11.001c-0.006,0.157-0.01,0.314-0.01,0.473s0.004,0.315,0.01,0.472h11.001
		l-7.779,7.779C199.483,22.361,199.706,22.584,199.938,22.798L199.938,22.798z"/>
	<polygon fill-rule="evenodd" clip-rule="evenodd" fill="#FCF3E4" points="222.067,83.275 249.826,83.275 249.826,55.518 
		222.067,55.518 222.067,83.275 	"/>
	<path fill-rule="evenodd" clip-rule="evenodd" fill="#BDBDFF" d="M222.067,83.275h3.084l24.674-24.674v-3.084h-3.084
		l-24.674,24.674V83.275L222.067,83.275z M231.32,83.275h6.168l12.337-12.337v-6.168L231.32,83.275L231.32,83.275z M243.658,83.275
		h6.168l0,0v-6.168L243.658,83.275L243.658,83.275z M240.573,55.518h-6.168l-12.337,12.337v6.168L240.573,55.518L240.573,55.518z
		 M228.236,55.518h-6.168h0v6.168L228.236,55.518L228.236,55.518z"/>
	<polygon fill-rule="evenodd" clip-rule="evenodd" fill="#FFC95E" points="249.826,55.518 222.067,55.518 222.067,27.759 
		249.826,27.759 249.826,55.518 	"/>
	<polygon fill-rule="evenodd" clip-rule="evenodd" fill="#99CCCC" points="277.584,55.518 249.826,55.518 249.826,27.759 
		277.584,27.759 277.584,55.518 	"/>
	<polygon fill-rule="evenodd" clip-rule="evenodd" fill="#E6E6E6" points="249.826,27.759 277.584,27.759 277.584,0 249.826,0 
		249.826,27.759 	"/>
	<polygon fill-rule="evenodd" clip-rule="evenodd" fill="#FF99FF" points="194.309,138.793 222.067,138.793 222.067,111.034 
		194.309,111.034 194.309,138.793 	"/>
	<polygon fill-rule="evenodd" clip-rule="evenodd" fill="#99FFFF" points="222.067,111.034 194.309,111.034 208.188,124.913 
		222.067,111.034 	"/>
	<polygon fill-rule="evenodd" clip-rule="evenodd" fill="#99FFFF" points="222.067,124.913 194.309,124.913 208.188,138.793 
		222.067,124.913 	"/>
	<polygon fill-rule="evenodd" clip-rule="evenodd" fill="#FF9966" points="222.067,138.793 249.826,138.793 249.826,111.034 
		222.067,111.034 222.067,138.793 	"/>
	<path fill-rule="evenodd" clip-rule="evenodd" fill="#FFFFFF" d="M239.433,120.967l5.054,0.129
		c0.817,0.021,1.515,0.543,1.768,1.319c0.251,0.772-0.01,1.612-0.654,2.106l-4.013,3.075l1.439,4.847
		c0.232,0.781-0.049,1.609-0.708,2.088c-0.661,0.48-1.533,0.491-2.206,0.028l-4.165-2.866l-4.165,2.866
		c-0.673,0.463-1.545,0.452-2.206-0.028c-0.659-0.479-0.94-1.307-0.708-2.088l1.439-4.847l-4.013-3.075
		c-0.645-0.494-0.906-1.334-0.655-2.106c0.253-0.776,0.951-1.298,1.768-1.319l5.054-0.129l1.685-4.767
		c0.272-0.771,0.983-1.273,1.8-1.273c0.817,0,1.529,0.503,1.801,1.273L239.433,120.967L239.433,120.967z"/>
	<polygon fill-rule="evenodd" clip-rule="evenodd" fill="#E3E371" points="249.826,138.793 277.584,138.793 277.584,111.034 
		249.826,111.034 249.826,138.793 	"/>
	<path fill-rule="evenodd" clip-rule="evenodd" fill="#FFFF99" d="M256.101,132.518L256.101,132.518
		c1.327,1.327,3.497,1.327,4.824,0l2.781-2.781l2.781,2.781c1.326,1.327,3.497,1.327,4.823,0l0,0c1.327-1.326,1.327-3.497,0-4.823
		l-2.781-2.781l2.781-2.78c1.327-1.327,1.327-3.497,0-4.824l0,0c-1.327-1.326-3.497-1.326-4.823,0l-2.781,2.781l-2.781-2.781
		c-1.327-1.326-3.497-1.326-4.824,0l0,0c-1.326,1.327-1.326,3.497,0,4.824l2.781,2.78l-2.781,2.781
		C254.774,129.021,254.774,131.191,256.101,132.518L256.101,132.518z"/>
	<polygon fill-rule="evenodd" clip-rule="evenodd" fill="#FFFF66" points="157.417,92.737 158.853,94.174 160.289,92.737 
		163.38,89.646 161.944,88.21 158.853,91.301 157.198,89.646 155.762,88.21 154.326,89.646 152.671,91.301 151.017,89.646 
		149.581,88.21 148.145,89.646 146.49,91.301 143.399,88.21 141.963,89.646 145.054,92.737 146.49,94.174 147.926,92.737 
		149.581,91.082 151.235,92.737 152.671,94.174 154.108,92.737 155.762,91.082 157.417,92.737 	"/>
	<polygon fill-rule="evenodd" clip-rule="evenodd" fill="#FFFF66" points="157.417,98.7 158.853,100.137 160.289,98.7 
		163.38,95.609 161.944,94.174 158.853,97.264 157.198,95.609 155.762,94.174 154.326,95.609 152.671,97.264 151.017,95.609 
		149.581,94.174 148.145,95.609 146.49,97.264 143.399,94.174 141.963,95.609 145.054,98.7 146.49,100.137 147.926,98.7 
		149.581,97.046 151.235,98.7 152.671,100.137 154.108,98.7 155.762,97.046 157.417,98.7 	"/>
	<polygon fill-rule="evenodd" clip-rule="evenodd" fill="#FFFF66" points="157.417,104.664 158.853,106.1 160.289,104.664 
		163.38,101.573 161.944,100.137 158.853,103.228 157.198,101.573 155.762,100.137 154.326,101.573 152.671,103.228 
		151.017,101.573 149.581,100.137 148.145,101.573 146.49,103.228 143.399,100.137 141.963,101.573 145.054,104.664 146.49,106.1 
		147.926,104.664 149.581,103.009 151.235,104.664 152.671,106.1 154.108,104.664 155.762,103.009 157.417,104.664 	"/>
	<path fill-rule="evenodd" clip-rule="evenodd" fill="#FFFFFF" d="M189.894,91.69L189.894,91.69
		c-0.22-0.381-0.712-0.513-1.094-0.293l-7.57,4.371v-8.741c0-0.44-0.36-0.801-0.801-0.801l0,0c-0.44,0-0.8,0.36-0.8,0.801v8.741
		l-7.57-4.371c-0.381-0.22-0.873-0.088-1.093,0.293l0,0c-0.22,0.382-0.088,0.874,0.293,1.094l7.57,4.371l-7.57,4.37
		c-0.381,0.221-0.513,0.713-0.293,1.094l0,0c0.22,0.381,0.712,0.513,1.093,0.293l7.57-4.37v8.74c0,0.44,0.36,0.801,0.8,0.801l0,0
		c0.44,0,0.801-0.36,0.801-0.801v-8.74l7.57,4.37c0.382,0.22,0.874,0.088,1.094-0.293l0,0c0.22-0.381,0.088-0.873-0.293-1.094
		l-7.57-4.37l7.57-4.371C189.982,92.564,190.114,92.072,189.894,91.69L189.894,91.69z"/>
	<g>
		<path fill-rule="evenodd" clip-rule="evenodd" fill="#FFCCCC" d="M180.43,59.7c-1.289,1.118-2.104,2.768-2.104,4.608
			c0,1.84,0.815,3.49,2.104,4.608c1.289-1.118,2.104-2.769,2.104-4.608C182.534,62.468,181.719,60.818,180.43,59.7L180.43,59.7z"/>
		<path fill-rule="evenodd" clip-rule="evenodd" fill="#FFCCCC" d="M190.625,67.107c-1.462-0.881-3.283-1.146-5.033-0.577
			s-3.068,1.854-3.733,3.426c1.461,0.88,3.283,1.146,5.033,0.577C188.643,69.964,189.96,68.679,190.625,67.107L190.625,67.107z"/>
		<path fill-rule="evenodd" clip-rule="evenodd" fill="#FFCCCC" d="M186.731,79.093c0.386-1.662,0.075-3.476-1.006-4.965
			c-1.082-1.489-2.711-2.345-4.411-2.491c-0.386,1.662-0.075,3.476,1.006,4.965S185.031,78.946,186.731,79.093L186.731,79.093z"/>
		<path fill-rule="evenodd" clip-rule="evenodd" fill="#FFCCCC" d="M174.128,79.093c1.7-0.146,3.33-1.002,4.411-2.491
			c1.082-1.489,1.392-3.303,1.007-4.965c-1.7,0.146-3.33,1.002-4.412,2.491C174.053,75.617,173.743,77.431,174.128,79.093
			L174.128,79.093z"/>
		<path fill-rule="evenodd" clip-rule="evenodd" fill="#FFCCCC" d="M170.234,67.107c0.666,1.571,1.983,2.856,3.733,3.426
			c1.75,0.568,3.572,0.303,5.034-0.577c-0.666-1.571-1.982-2.857-3.733-3.426S171.696,66.227,170.234,67.107L170.234,67.107z"/>
	</g>
	<path fill-rule="evenodd" clip-rule="evenodd" fill="#FEA698" d="M200.148,104.875h2.297v-15.44h-2.297V104.875L200.148,104.875z
		 M213.931,104.875h2.297v-15.44h-2.297V104.875L213.931,104.875z M209.337,104.875h2.297v-15.44h-2.297V104.875L209.337,104.875z
		 M204.743,104.875h2.297v-15.44h-2.297V104.875L204.743,104.875z"/>
	<path fill-rule="evenodd" clip-rule="evenodd" fill="#FFFFCC" d="M227.779,90.157L227.779,90.157c1.392-1.392,3.67-1.392,5.062,0
		l3.106,3.106l3.106-3.106c1.392-1.392,3.669-1.392,5.062,0l0,0c1.392,1.393,1.392,3.67,0,5.062l-3.106,3.106l-5.062,5.062
		l-5.062-5.062l-3.106-3.106C226.387,93.827,226.387,91.55,227.779,90.157L227.779,90.157z"/>
	<path fill-rule="evenodd" clip-rule="evenodd" fill="#FFFF66" d="M152.671,77.889c4.69,0,8.492-3.802,8.492-8.492
		c0-4.689-3.802-8.492-8.492-8.492s-8.492,3.803-8.492,8.492C144.18,74.087,147.981,77.889,152.671,77.889L152.671,77.889z"/>
	<path fill-rule="evenodd" clip-rule="evenodd" fill="#FFFFCC" d="M203.144,78.982c2.508,0,4.541-2.033,4.541-4.542
		c0-2.508-2.033-4.541-4.541-4.541c-2.508,0-4.541,2.033-4.541,4.541C198.603,76.949,200.636,78.982,203.144,78.982L203.144,78.982z
		"/>
	<path fill-rule="evenodd" clip-rule="evenodd" fill="#FFFFCC" d="M203.144,68.894c2.508,0,4.541-2.033,4.541-4.541
		c0-2.509-2.033-4.542-4.541-4.542c-2.508,0-4.541,2.033-4.541,4.542C198.603,66.86,200.636,68.894,203.144,68.894L203.144,68.894z"
		/>
	<path fill-rule="evenodd" clip-rule="evenodd" fill="#FFFFCC" d="M213.232,78.982c2.508,0,4.542-2.033,4.542-4.542
		c0-2.508-2.033-4.541-4.542-4.541c-2.508,0-4.541,2.033-4.541,4.541C208.691,76.949,210.725,78.982,213.232,78.982L213.232,78.982z
		"/>
	<path fill-rule="evenodd" clip-rule="evenodd" fill="#FFFFCC" d="M213.232,68.894c2.508,0,4.542-2.033,4.542-4.541
		c0-2.509-2.033-4.542-4.542-4.542c-2.508,0-4.541,2.033-4.541,4.542C208.691,66.86,210.725,68.894,213.232,68.894L213.232,68.894z"
		/>
	<path fill-rule="evenodd" clip-rule="evenodd" fill="#FFFFCC" d="M265.902,74.514c-0.098,1.576,0.112,3.163,0.627,4.662
		c0.77,2.238,3.7,2.779,5.116,0.831c0.934-1.285,0.7-3.072-0.594-4.017c-0.083-0.063-0.166-0.125-0.25-0.187
		c-1.244-0.903-2.616-1.54-4.042-1.912c0.015-0.121,0.032-0.243,0.051-0.365c0.208-1.339,0.65-2.61,1.296-3.766
		c1.5,0.586,3.114,0.872,4.726,0.826c0.278-0.008,0.555-0.055,0.82-0.142c1.519-0.493,2.35-2.125,1.856-3.644
		c-0.493-1.519-2.125-2.351-3.644-1.856c-0.273,0.089-0.535,0.219-0.77,0.384c-0.082,0.058-0.164,0.115-0.245,0.174
		c-1.233,0.896-2.269,2-3.071,3.252c-0.125-0.058-0.25-0.118-0.374-0.181c-1.207-0.611-2.277-1.423-3.175-2.393
		c1.008-1.225,1.784-2.66,2.251-4.249c0.078-0.268,0.119-0.546,0.119-0.824c0-1.597-1.294-2.892-2.892-2.892
		c-0.763,0-1.457,0.295-1.973,0.777c-0.789,0.735-1.139,1.883-0.794,2.974c0.023,0.097,0.054,0.193,0.085,0.288
		c0.471,1.449,1.202,2.775,2.145,3.926c-0.993,1.068-2.186,1.938-3.511,2.555c-0.869-1.359-2.003-2.535-3.34-3.45
		c-0.491-0.336-1.081-0.512-1.675-0.51c-1.597,0.006-2.888,1.31-2.888,2.904c0,1.59,1.242,2.9,2.835,2.899
		c0.106,0.003,0.211,0.005,0.317,0.005c1.549,0,3.045-0.296,4.425-0.841c0.067,0.121,0.133,0.243,0.196,0.367
		c0.611,1.195,0.998,2.472,1.156,3.772c-1.542,0.398-3.02,1.105-4.336,2.12c-0.221,0.171-0.415,0.369-0.579,0.596
		c-0.939,1.292-0.652,3.101,0.64,4.039c0.256,0.186,0.534,0.324,0.821,0.416c0.001,0.001,0.002,0.001,0.003,0.001
		c1.092,0.355,2.245,0.03,2.989-0.746c0.09-0.094,0.174-0.194,0.252-0.302c0.005-0.007,0.01-0.014,0.014-0.021
		c0.139-0.196,0.255-0.412,0.344-0.646c0.014-0.023,0.026-0.049,0.036-0.075c0.036-0.1,0.069-0.2,0.102-0.301
		c0.473-1.456,0.662-2.966,0.571-4.457C262.982,74.228,264.463,74.229,265.902,74.514L265.902,74.514z M265.978,73.716
		c-1.489-0.284-3.02-0.286-4.507-0.006c-0.175-1.366-0.586-2.706-1.228-3.962c-0.056-0.108-0.113-0.216-0.171-0.323
		c1.365-0.646,2.597-1.543,3.63-2.641c0.95,1.011,2.077,1.859,3.344,2.502c0.107,0.055,0.215,0.107,0.324,0.158
		c-0.669,1.218-1.128,2.554-1.348,3.96C266.006,73.508,265.992,73.611,265.978,73.716L265.978,73.716z M270.567,76.625
		c0.004,0.003,0.008,0.006,0.011,0.008c0.941,0.685,1.097,1.976,0.422,2.904c-1.038,1.428-3.156,1.009-3.716-0.621
		c-0.466-1.356-0.665-2.79-0.593-4.217c1.283,0.352,2.519,0.935,3.642,1.75C270.411,76.507,270.489,76.565,270.567,76.625
		L270.567,76.625z M260.757,74.691c0.065,1.349-0.113,2.711-0.541,4.027c-0.018,0.054-0.036,0.108-0.054,0.162
		c-0.015,0.025-0.028,0.053-0.038,0.082c-0.1,0.306-0.262,0.571-0.469,0.789c-0.717,0.75-1.916,0.864-2.774,0.241
		c-0.936-0.68-1.143-1.989-0.463-2.925c0.12-0.165,0.259-0.309,0.42-0.433C258.031,75.717,259.365,75.068,260.757,74.691
		L260.757,74.691z M261.609,61.181c0.004-0.023,0.007-0.048,0.007-0.072c0-0.583,0.238-1.11,0.622-1.489
		c0.226-0.223,0.505-0.396,0.824-0.501c1.1-0.357,2.281,0.245,2.639,1.345c0.004,0.013,0.008,0.024,0.014,0.036
		c0.058,0.193,0.09,0.397,0.09,0.609c0,0.203-0.03,0.404-0.087,0.599c-0.422,1.438-1.116,2.741-2.015,3.861
		c-0.839-1.049-1.491-2.251-1.916-3.56c-0.026-0.078-0.052-0.16-0.072-0.241c-0.002-0.01-0.005-0.02-0.008-0.029
		C261.647,61.553,261.615,61.366,261.609,61.181L261.609,61.181z M258.916,69.052c-1.253,0.477-2.606,0.735-4.005,0.735
		c-0.099,0-0.198-0.001-0.297-0.004c-0.003,0-0.006,0-0.01,0c-1.164,0-2.048-0.953-2.048-2.103c0-1.156,0.935-2.103,2.093-2.106
		c0.433-0.002,0.864,0.126,1.222,0.37C257.082,66.773,258.115,67.831,258.916,69.052L258.916,69.052z M268.528,69.068
		c0.738-1.121,1.679-2.112,2.792-2.92c0.078-0.057,0.157-0.111,0.236-0.167c0.169-0.119,0.36-0.214,0.557-0.277
		c1.1-0.357,2.281,0.244,2.639,1.344c0.357,1.101-0.245,2.282-1.344,2.64c-0.193,0.063-0.394,0.097-0.597,0.103
		C271.352,69.831,269.891,69.581,268.528,69.068L268.528,69.068z"/>
	<polygon fill-rule="evenodd" clip-rule="evenodd" fill="#FFBDFF" points="138.792,55.518 166.551,55.518 166.551,27.759 
		138.792,27.759 138.792,55.518 	"/>
	<polygon fill-rule="evenodd" clip-rule="evenodd" fill="#FCF3E4" points="152.671,53.488 164.522,41.638 152.671,29.788 
		140.821,41.638 152.671,53.488 	"/>
	<path fill-rule="evenodd" clip-rule="evenodd" fill="#CCCCCC" d="M212.014,36.822l2.523,0.771c0.889,0.272,1.571,0.942,1.858,1.827
		c0.287,0.882,0.128,1.829-0.43,2.569l-1.588,2.108l0.045,2.638c0.016,0.929-0.412,1.786-1.163,2.332
		c-0.746,0.542-1.705,0.686-2.577,0.386l-2.495-0.859l-2.495,0.859c-0.872,0.3-1.832,0.156-2.577-0.386
		c-0.751-0.546-1.179-1.403-1.163-2.332l0.046-2.638l-1.588-2.108c-0.558-0.74-0.716-1.688-0.43-2.569
		c0.287-0.885,0.969-1.555,1.858-1.827l2.523-0.771l1.514-2.162c0.534-0.762,1.381-1.202,2.312-1.202s1.778,0.44,2.311,1.202
		L212.014,36.822L212.014,36.822z"/>
	<polygon fill-rule="evenodd" clip-rule="evenodd" fill="#FFF28F" points="194.309,0 166.551,0 180.43,13.88 194.309,0 	"/>
	<path fill-rule="evenodd" clip-rule="evenodd" fill="#B3B3B3" d="M138.792,0v5.552h27.759V0H138.792L138.792,0z M138.792,22.207
		v5.552h27.759v-5.552H138.792L138.792,22.207z M138.792,11.104v5.552h27.759v-5.552H138.792L138.792,11.104z"/>
	<polygon fill-rule="evenodd" clip-rule="evenodd" fill="#FFF28F" points="194.309,27.759 166.551,27.759 180.43,13.88 
		194.309,27.759 	"/>
	<path fill-rule="evenodd" clip-rule="evenodd" fill="#FFFFCC" d="M235.947,51.452L235.947,51.452c1.799,0,3.271-1.472,3.271-3.271
		v-3.271h3.271c1.799,0,3.271-1.472,3.271-3.271l0,0c0-1.799-1.472-3.271-3.271-3.271h-3.271v-3.271
		c0-1.799-1.472-3.271-3.271-3.271l0,0c-1.799,0-3.271,1.473-3.271,3.271v3.271h-3.271c-1.799,0-3.271,1.473-3.271,3.271l0,0
		c0,1.8,1.472,3.271,3.271,3.271h3.271v3.271C232.675,49.98,234.147,51.452,235.947,51.452L235.947,51.452z"/>
	<path fill-rule="evenodd" clip-rule="evenodd" fill="#FFFFCC" d="M257.798,42.806v-5.047c0-0.603-0.498-1.1-1.1-1.1
		c-0.603,0-1.1,0.497-1.1,1.1v10.095c0,0.681-0.555,1.235-1.236,1.235c-0.681,0-1.236-0.555-1.236-1.235V37.759
		c0-1.967,1.604-3.571,3.572-3.571c1.967,0,3.572,1.604,3.572,3.571v7.759c0,0.603,0.497,1.1,1.1,1.1c0.603,0,1.1-0.497,1.1-1.1
		v-0.925v-1.675v-5.159c0-1.967,1.605-3.571,3.572-3.571c1.967,0,3.572,1.604,3.572,3.571v2.711v5.048c0,0.603,0.498,1.1,1.1,1.1
		s1.1-0.497,1.1-1.1V35.423c0-0.681,0.555-1.235,1.236-1.235s1.236,0.555,1.236,1.235v10.095c0,1.967-1.605,3.571-3.572,3.571
		s-3.572-1.604-3.572-3.571v-7.759c0-0.603-0.498-1.1-1.1-1.1s-1.1,0.497-1.1,1.1v5.159v1.675v0.925
		c0,1.967-1.604,3.571-3.571,3.571c-1.967,0-3.572-1.604-3.572-3.571V42.806L257.798,42.806z"/>
	<path fill-rule="evenodd" clip-rule="evenodd" fill="#FFFFFF" d="M263.705,23.524c5.327,0,9.645-4.318,9.645-9.645
		c0-5.327-4.318-9.645-9.645-9.645c-5.326,0-9.645,4.317-9.645,9.645C254.061,19.206,258.379,23.524,263.705,23.524L263.705,23.524z
		"/>
	<path fill-rule="evenodd" clip-rule="evenodd" fill="#B3B3B3" d="M263.705,16.035c1.19,0,2.156-0.965,2.156-2.155
		s-0.965-2.156-2.156-2.156s-2.155,0.966-2.155,2.156S262.515,16.035,263.705,16.035L263.705,16.035z"/>
	<polygon fill-rule="evenodd" clip-rule="evenodd" fill="#FF6699" points="222.068,138.793 249.826,138.793 249.826,166.551 
		222.068,166.551 222.068,138.793 	"/>
	<path fill-rule="evenodd" clip-rule="evenodd" fill="#FFFFCC" d="M235.947,161.748c0.464-4.796,4.279-8.611,9.075-9.075
		c-4.796-0.464-8.612-4.28-9.075-9.077c-0.463,4.797-4.279,8.613-9.075,9.077C231.667,153.137,235.483,156.952,235.947,161.748
		L235.947,161.748z"/>
	<polygon fill-rule="evenodd" clip-rule="evenodd" fill="#E6E6E6" points="194.309,194.31 222.067,194.31 222.067,166.551 
		194.309,166.551 194.309,194.31 	"/>
	<polygon fill-rule="evenodd" clip-rule="evenodd" fill="#F07233" points="194.309,194.31 180.43,194.31 180.43,180.431 
		194.309,180.431 194.309,194.31 	"/>
	<polygon fill-rule="evenodd" clip-rule="evenodd" fill="#F07233" points="180.43,180.431 166.551,180.431 166.551,166.551 
		180.43,166.551 180.43,180.431 	"/>
	<polygon fill-rule="evenodd" clip-rule="evenodd" fill="#CC99FF" points="166.551,222.068 194.309,222.068 194.309,194.31 
		166.551,194.31 166.551,222.068 	"/>
	<polygon fill-rule="evenodd" clip-rule="evenodd" fill="#C2F3FF" points="138.792,222.068 166.551,222.068 166.551,194.31 
		138.792,194.31 138.792,222.068 	"/>
	<polygon fill-rule="evenodd" clip-rule="evenodd" fill="#FFFFFF" points="249.826,222.068 277.584,222.068 277.584,194.31 
		249.826,194.31 249.826,222.068 	"/>
	<polygon fill-rule="evenodd" clip-rule="evenodd" fill="#FFFFCC" points="249.826,249.826 277.584,249.826 263.705,235.947 
		249.826,249.826 	"/>
	<polygon fill-rule="evenodd" clip-rule="evenodd" fill="#FF5792" points="249.826,222.068 277.584,222.068 263.705,235.947 
		249.826,222.068 	"/>
	<polygon fill-rule="evenodd" clip-rule="evenodd" fill="#FECD4D" points="249.826,222.068 249.826,249.826 263.705,235.947 
		249.826,222.068 	"/>
	<polygon fill-rule="evenodd" clip-rule="evenodd" fill="#9CE9FC" points="277.584,222.068 277.584,249.826 263.705,235.947 
		277.584,222.068 	"/>
	<polygon fill-rule="evenodd" clip-rule="evenodd" fill="#FECD4D" points="194.309,249.826 194.309,277.585 166.551,277.585 
		166.551,249.826 194.309,249.826 	"/>
	<path fill-rule="evenodd" clip-rule="evenodd" fill="#CC99FF" d="M191.616,263.706c0,6.178-5.008,11.186-11.187,11.186
		c-6.178,0-11.186-5.008-11.186-11.186c0-6.179,5.008-11.187,11.186-11.187C186.608,252.52,191.616,257.527,191.616,263.706
		L191.616,263.706z"/>
	<path fill-rule="evenodd" clip-rule="evenodd" fill="#FFCCCC" d="M186.308,263.706c0,3.246-2.632,5.878-5.878,5.878
		c-3.246,0-5.878-2.632-5.878-5.878c0-3.247,2.632-5.879,5.878-5.879C183.676,257.827,186.308,260.459,186.308,263.706
		L186.308,263.706z"/>
	<polygon fill-rule="evenodd" clip-rule="evenodd" fill="#CD49FD" points="138.792,249.826 166.551,249.826 166.551,277.585 
		138.792,277.585 138.792,249.826 	"/>
	<path fill-rule="evenodd" clip-rule="evenodd" fill="#FAF7F2" d="M162.209,269.212L162.209,269.212
		c-1.089,1.887-3.46,2.598-5.394,1.671c-0.165,2.138-1.965,3.836-4.144,3.836l0,0c-2.178,0-3.979-1.698-4.144-3.836
		c-1.934,0.927-4.305,0.216-5.394-1.671l0,0c-1.089-1.886-0.519-4.295,1.25-5.506c-1.769-1.212-2.34-3.62-1.25-5.507l0,0
		c1.089-1.887,3.46-2.597,5.394-1.67c0.165-2.139,1.965-3.837,4.144-3.837l0,0c2.178,0,3.979,1.698,4.144,3.836
		c1.934-0.926,4.305-0.216,5.394,1.671l0,0c1.089,1.887,0.519,4.295-1.25,5.507C162.728,264.917,163.298,267.326,162.209,269.212
		L162.209,269.212z"/>
	<path fill-rule="evenodd" clip-rule="evenodd" fill="#FF6699" d="M152.671,258.667c2.783,0,5.039,2.256,5.039,5.039
		s-2.256,5.039-5.039,5.039c-2.783,0-5.039-2.256-5.039-5.039S149.889,258.667,152.671,258.667L152.671,258.667z"/>
	<polygon fill-rule="evenodd" clip-rule="evenodd" fill="#FFCCCC" points="138.792,222.068 166.551,222.068 166.551,249.826 
		138.792,249.826 138.792,222.068 	"/>
	<polygon fill-rule="evenodd" clip-rule="evenodd" fill="#E6E6E6" points="166.551,222.068 194.309,222.068 194.309,249.826 
		166.551,249.826 166.551,222.068 	"/>
	<polygon fill-rule="evenodd" clip-rule="evenodd" fill="#FFF28F" points="194.309,222.068 222.068,222.068 222.068,249.826 
		194.309,249.826 194.309,222.068 	"/>
	<polygon fill-rule="evenodd" clip-rule="evenodd" fill="#CD49FD" points="222.067,222.068 249.826,222.068 249.826,249.826 
		222.067,249.826 222.067,222.068 	"/>
	<polygon fill-rule="evenodd" clip-rule="evenodd" fill="#FFCCCC" points="249.826,222.068 277.584,222.068 277.584,194.31 
		249.826,194.31 249.826,222.068 	"/>
	<polygon fill-rule="evenodd" clip-rule="evenodd" fill="#855CFF" points="194.309,222.068 222.067,222.068 222.067,194.31 
		194.309,194.31 194.309,222.068 	"/>
	<polygon fill-rule="evenodd" clip-rule="evenodd" fill="#A485FF" points="166.551,166.551 194.309,166.551 194.309,138.793 
		166.551,138.793 166.551,166.551 	"/>
	<polygon fill-rule="evenodd" clip-rule="evenodd" fill="#FEA698" points="194.309,166.551 222.067,166.551 222.067,138.793 
		194.309,138.793 194.309,166.551 	"/>
	<path fill-rule="evenodd" clip-rule="evenodd" fill="#FFFFFF" d="M199.938,161.591l7.779-7.779v11.001
		c0.157,0.006,0.314,0.01,0.472,0.01s0.315-0.004,0.472-0.01v-11.001l7.779,7.779c0.231-0.214,0.454-0.437,0.667-0.668l-7.779-7.779
		h11.001c0.006-0.156,0.01-0.313,0.01-0.472s-0.004-0.315-0.01-0.472h-11.001l7.779-7.779c-0.214-0.231-0.437-0.454-0.667-0.668
		l-7.779,7.779v-11.001c-0.157-0.006-0.314-0.01-0.472-0.01s-0.315,0.004-0.472,0.01v11.001l-7.779-7.779
		c-0.231,0.214-0.454,0.437-0.668,0.668l7.779,7.779h-11.001c-0.006,0.156-0.01,0.313-0.01,0.472s0.004,0.315,0.01,0.472h11.001
		l-7.779,7.779C199.483,161.154,199.706,161.377,199.938,161.591L199.938,161.591z"/>
	<polygon fill-rule="evenodd" clip-rule="evenodd" fill="#FCF3E4" points="222.067,222.068 249.826,222.068 249.826,194.31 
		222.067,194.31 222.067,222.068 	"/>
	<path fill-rule="evenodd" clip-rule="evenodd" fill="#BDBDFF" d="M222.067,222.068h3.084l24.674-24.675v-3.084h-3.084
		l-24.674,24.674V222.068L222.067,222.068z M231.32,222.068h6.168l12.337-12.337v-6.169L231.32,222.068L231.32,222.068z
		 M243.658,222.068h6.168l0,0v-6.169L243.658,222.068L243.658,222.068z M240.573,194.31h-6.168l-12.337,12.337v6.169L240.573,194.31
		L240.573,194.31z M228.236,194.31h-6.168h0v6.169L228.236,194.31L228.236,194.31z"/>
	<polygon fill-rule="evenodd" clip-rule="evenodd" fill="#FFC95E" points="249.826,194.31 222.067,194.31 222.067,166.551 
		249.826,166.551 249.826,194.31 	"/>
	<polygon fill-rule="evenodd" clip-rule="evenodd" fill="#99CCCC" points="277.584,194.31 249.826,194.31 249.826,166.551 
		277.584,166.551 277.584,194.31 	"/>
	<polygon fill-rule="evenodd" clip-rule="evenodd" fill="#E6E6E6" points="249.826,166.551 277.584,166.551 277.584,138.793 
		249.826,138.793 249.826,166.551 	"/>
	<polygon fill-rule="evenodd" clip-rule="evenodd" fill="#FF99FF" points="194.309,277.585 222.067,277.585 222.067,249.826 
		194.309,249.826 194.309,277.585 	"/>
	<polygon fill-rule="evenodd" clip-rule="evenodd" fill="#99FFFF" points="222.067,249.826 194.309,249.826 208.188,263.706 
		222.067,249.826 	"/>
	<polygon fill-rule="evenodd" clip-rule="evenodd" fill="#99FFFF" points="222.067,263.706 194.309,263.706 208.188,277.585 
		222.067,263.706 	"/>
	<polygon fill-rule="evenodd" clip-rule="evenodd" fill="#FF9966" points="222.067,277.585 249.826,277.585 249.826,249.826 
		222.067,249.826 222.067,277.585 	"/>
	<path fill-rule="evenodd" clip-rule="evenodd" fill="#FFFFFF" d="M239.433,259.759l5.054,0.13c0.817,0.021,1.515,0.542,1.768,1.318
		c0.251,0.772-0.01,1.612-0.654,2.106l-4.013,3.075l1.439,4.847c0.232,0.781-0.049,1.609-0.708,2.089
		c-0.661,0.479-1.533,0.491-2.206,0.027l-4.165-2.865l-4.165,2.865c-0.673,0.464-1.545,0.452-2.206-0.027
		c-0.659-0.479-0.94-1.308-0.708-2.089l1.439-4.847l-4.013-3.075c-0.645-0.494-0.906-1.334-0.655-2.106
		c0.253-0.776,0.951-1.298,1.768-1.318l5.054-0.13l1.685-4.767c0.272-0.77,0.983-1.273,1.8-1.273c0.817,0,1.529,0.504,1.801,1.273
		L239.433,259.759L239.433,259.759z"/>
	<polygon fill-rule="evenodd" clip-rule="evenodd" fill="#E3E371" points="249.826,277.585 277.584,277.585 277.584,249.826 
		249.826,249.826 249.826,277.585 	"/>
	<path fill-rule="evenodd" clip-rule="evenodd" fill="#FFFF99" d="M256.101,271.311L256.101,271.311
		c1.327,1.326,3.497,1.326,4.824,0l2.781-2.781l2.781,2.781c1.326,1.326,3.497,1.326,4.823,0l0,0c1.327-1.327,1.327-3.497,0-4.824
		l-2.781-2.78l2.781-2.781c1.327-1.326,1.327-3.497,0-4.823l0,0c-1.327-1.327-3.497-1.327-4.823,0l-2.781,2.78l-2.781-2.78
		c-1.327-1.327-3.497-1.327-4.824,0l0,0c-1.326,1.326-1.326,3.497,0,4.823l2.781,2.781l-2.781,2.78
		C254.774,267.813,254.774,269.983,256.101,271.311L256.101,271.311z"/>
	<polygon fill-rule="evenodd" clip-rule="evenodd" fill="#FFFF66" points="157.417,231.529 158.853,232.966 160.289,231.529 
		163.38,228.438 161.944,227.002 158.853,230.093 157.198,228.438 155.762,227.002 154.326,228.438 152.671,230.093 
		151.017,228.438 149.581,227.002 148.145,228.438 146.49,230.093 143.399,227.002 141.963,228.438 145.054,231.529 146.49,232.966 
		147.926,231.529 149.581,229.875 151.235,231.529 152.671,232.966 154.108,231.529 155.762,229.875 157.417,231.529 	"/>
	<polygon fill-rule="evenodd" clip-rule="evenodd" fill="#FFFF66" points="157.417,237.493 158.853,238.929 160.289,237.493 
		163.38,234.401 161.944,232.966 158.853,236.056 157.198,234.401 155.762,232.966 154.326,234.401 152.671,236.056 
		151.017,234.401 149.581,232.966 148.145,234.401 146.49,236.056 143.399,232.966 141.963,234.401 145.054,237.493 146.49,238.929 
		147.926,237.493 149.581,235.838 151.235,237.493 152.671,238.929 154.108,237.493 155.762,235.838 157.417,237.493 	"/>
	<polygon fill-rule="evenodd" clip-rule="evenodd" fill="#FFFF66" points="157.417,243.456 158.853,244.893 160.289,243.456 
		163.38,240.365 161.944,238.929 158.853,242.02 157.198,240.365 155.762,238.929 154.326,240.365 152.671,242.02 151.017,240.365 
		149.581,238.929 148.145,240.365 146.49,242.02 143.399,238.929 141.963,240.365 145.054,243.456 146.49,244.893 147.926,243.456 
		149.581,241.802 151.235,243.456 152.671,244.893 154.108,243.456 155.762,241.802 157.417,243.456 	"/>
	<path fill-rule="evenodd" clip-rule="evenodd" fill="#FFFFFF" d="M189.894,230.483L189.894,230.483
		c-0.22-0.382-0.712-0.514-1.094-0.293l-7.57,4.37v-8.741c0-0.44-0.36-0.801-0.801-0.801l0,0c-0.44,0-0.8,0.36-0.8,0.801v8.741
		l-7.57-4.37c-0.381-0.221-0.873-0.089-1.093,0.293l0,0c-0.22,0.381-0.088,0.873,0.293,1.093l7.57,4.371l-7.57,4.371
		c-0.381,0.22-0.513,0.712-0.293,1.093l0,0c0.22,0.382,0.712,0.514,1.093,0.293l7.57-4.37v8.741c0,0.44,0.36,0.8,0.8,0.8l0,0
		c0.44,0,0.801-0.359,0.801-0.8v-8.741l7.57,4.37c0.382,0.221,0.874,0.089,1.094-0.293l0,0c0.22-0.381,0.088-0.873-0.293-1.093
		l-7.57-4.371l7.57-4.371C189.982,231.356,190.114,230.864,189.894,230.483L189.894,230.483z"/>
	<path fill-rule="evenodd" clip-rule="evenodd" fill="#FEA698" d="M200.148,243.667h2.297v-15.439h-2.297V243.667L200.148,243.667z
		 M213.931,243.667h2.297v-15.439h-2.297V243.667L213.931,243.667z M209.337,243.667h2.297v-15.439h-2.297V243.667L209.337,243.667z
		 M204.743,243.667h2.297v-15.439h-2.297V243.667L204.743,243.667z"/>
	<path fill-rule="evenodd" clip-rule="evenodd" fill="#FFFFCC" d="M227.779,228.95L227.779,228.95c1.392-1.393,3.67-1.393,5.062,0
		l3.106,3.105l3.106-3.105c1.392-1.393,3.669-1.393,5.062,0l0,0c1.392,1.392,1.392,3.669,0,5.062l-3.106,3.105l-5.062,5.062
		l-5.062-5.062l-3.106-3.105C226.387,232.619,226.387,230.342,227.779,228.95L227.779,228.95z"/>
	<path fill-rule="evenodd" clip-rule="evenodd" fill="#FFFF66" d="M152.671,216.681c4.69,0,8.492-3.802,8.492-8.492
		c0-4.689-3.802-8.491-8.492-8.491s-8.492,3.802-8.492,8.491C144.18,212.879,147.981,216.681,152.671,216.681L152.671,216.681z"/>
	<path fill-rule="evenodd" clip-rule="evenodd" fill="#FFFFCC" d="M203.144,217.774c2.508,0,4.541-2.033,4.541-4.541
		c0-2.509-2.033-4.541-4.541-4.541c-2.508,0-4.541,2.032-4.541,4.541C198.603,215.741,200.636,217.774,203.144,217.774
		L203.144,217.774z"/>
	<path fill-rule="evenodd" clip-rule="evenodd" fill="#FFFFCC" d="M203.144,207.686c2.508,0,4.541-2.033,4.541-4.541
		s-2.033-4.541-4.541-4.541c-2.508,0-4.541,2.033-4.541,4.541S200.636,207.686,203.144,207.686L203.144,207.686z"/>
	<path fill-rule="evenodd" clip-rule="evenodd" fill="#FFFFCC" d="M213.232,217.774c2.508,0,4.542-2.033,4.542-4.541
		c0-2.509-2.033-4.541-4.542-4.541c-2.508,0-4.541,2.032-4.541,4.541C208.691,215.741,210.725,217.774,213.232,217.774
		L213.232,217.774z"/>
	<path fill-rule="evenodd" clip-rule="evenodd" fill="#FFFFCC" d="M213.232,207.686c2.508,0,4.542-2.033,4.542-4.541
		s-2.033-4.541-4.542-4.541c-2.508,0-4.541,2.033-4.541,4.541S210.725,207.686,213.232,207.686L213.232,207.686z"/>
	<path fill-rule="evenodd" clip-rule="evenodd" fill="#FFFFCC" d="M265.902,213.306c-0.098,1.576,0.112,3.163,0.627,4.662
		c0.77,2.238,3.7,2.78,5.116,0.831c0.934-1.285,0.7-3.072-0.594-4.017c-0.083-0.063-0.166-0.125-0.25-0.186
		c-1.244-0.904-2.616-1.541-4.042-1.913c0.015-0.121,0.032-0.243,0.051-0.365c0.208-1.339,0.65-2.61,1.296-3.766
		c1.5,0.586,3.114,0.872,4.726,0.826c0.278-0.008,0.555-0.055,0.82-0.142c1.519-0.493,2.35-2.125,1.856-3.644
		c-0.493-1.519-2.125-2.35-3.644-1.856c-0.273,0.089-0.535,0.219-0.77,0.384c-0.082,0.058-0.164,0.115-0.245,0.174
		c-1.233,0.896-2.269,2-3.071,3.252c-0.125-0.058-0.25-0.118-0.374-0.18c-1.207-0.612-2.277-1.424-3.175-2.393
		c1.008-1.226,1.784-2.661,2.251-4.25c0.078-0.268,0.119-0.545,0.119-0.824c0-1.597-1.294-2.892-2.892-2.892
		c-0.763,0-1.457,0.295-1.973,0.777c-0.789,0.735-1.139,1.883-0.794,2.974c0.023,0.097,0.054,0.193,0.085,0.288
		c0.471,1.449,1.202,2.775,2.145,3.926c-0.993,1.068-2.186,1.938-3.511,2.555c-0.869-1.359-2.003-2.535-3.34-3.45
		c-0.491-0.336-1.081-0.512-1.675-0.51c-1.597,0.006-2.888,1.31-2.888,2.905c0,1.589,1.242,2.899,2.835,2.899
		c0.106,0.002,0.211,0.004,0.317,0.004c1.549,0,3.045-0.296,4.425-0.841c0.067,0.121,0.133,0.243,0.196,0.367
		c0.611,1.195,0.998,2.472,1.156,3.773c-1.542,0.397-3.02,1.104-4.336,2.119c-0.221,0.171-0.415,0.369-0.579,0.596
		c-0.939,1.292-0.652,3.101,0.64,4.039c0.256,0.187,0.534,0.324,0.821,0.416c0.001,0.001,0.002,0.001,0.003,0.001
		c1.092,0.355,2.245,0.03,2.989-0.746c0.09-0.094,0.174-0.194,0.252-0.302c0.005-0.007,0.01-0.014,0.014-0.021
		c0.139-0.196,0.255-0.412,0.344-0.646c0.014-0.023,0.026-0.049,0.036-0.075c0.036-0.1,0.069-0.2,0.102-0.301
		c0.473-1.455,0.662-2.966,0.571-4.457C262.982,213.02,264.463,213.021,265.902,213.306L265.902,213.306z M265.978,212.508
		c-1.489-0.284-3.02-0.286-4.507-0.006c-0.175-1.366-0.586-2.706-1.228-3.962c-0.056-0.108-0.113-0.216-0.171-0.323
		c1.365-0.646,2.597-1.543,3.63-2.641c0.95,1.011,2.077,1.859,3.344,2.502c0.107,0.055,0.215,0.107,0.324,0.158
		c-0.669,1.218-1.128,2.554-1.348,3.96C266.006,212.3,265.992,212.403,265.978,212.508L265.978,212.508z M270.567,215.417
		c0.004,0.003,0.008,0.006,0.011,0.009c0.941,0.684,1.097,1.975,0.422,2.904c-1.038,1.428-3.156,1.008-3.716-0.622
		c-0.466-1.356-0.665-2.79-0.593-4.217c1.283,0.352,2.519,0.935,3.642,1.75C270.411,215.299,270.489,215.357,270.567,215.417
		L270.567,215.417z M260.757,213.483c0.065,1.349-0.113,2.712-0.541,4.027c-0.018,0.054-0.036,0.108-0.054,0.162
		c-0.015,0.025-0.028,0.053-0.038,0.082c-0.1,0.306-0.262,0.571-0.469,0.789c-0.717,0.75-1.916,0.865-2.774,0.241
		c-0.936-0.68-1.143-1.989-0.463-2.925c0.12-0.165,0.259-0.309,0.42-0.433C258.031,214.509,259.365,213.86,260.757,213.483
		L260.757,213.483z M261.609,199.973c0.004-0.023,0.007-0.047,0.007-0.072c0-0.583,0.238-1.109,0.622-1.489
		c0.226-0.223,0.505-0.396,0.824-0.501c1.1-0.357,2.281,0.245,2.639,1.346c0.004,0.012,0.008,0.024,0.014,0.036
		c0.058,0.192,0.09,0.396,0.09,0.608c0,0.203-0.03,0.404-0.087,0.6c-0.422,1.437-1.116,2.74-2.015,3.86
		c-0.839-1.049-1.491-2.25-1.916-3.559c-0.026-0.079-0.052-0.161-0.072-0.241c-0.002-0.011-0.005-0.02-0.008-0.03
		C261.647,200.345,261.615,200.158,261.609,199.973L261.609,199.973z M258.916,207.844c-1.253,0.477-2.606,0.735-4.005,0.735
		c-0.099,0-0.198-0.001-0.297-0.004c-0.003,0-0.006,0-0.01,0c-1.164,0-2.048-0.952-2.048-2.102c0-1.157,0.935-2.104,2.093-2.107
		c0.433-0.002,0.864,0.126,1.222,0.37C257.082,205.565,258.115,206.623,258.916,207.844L258.916,207.844z M268.528,207.86
		c0.738-1.121,1.679-2.111,2.792-2.92c0.078-0.057,0.157-0.111,0.236-0.167c0.169-0.119,0.36-0.214,0.557-0.277
		c1.1-0.357,2.281,0.244,2.639,1.344c0.357,1.101-0.245,2.282-1.344,2.64c-0.193,0.063-0.394,0.097-0.597,0.103
		C271.352,208.623,269.891,208.374,268.528,207.86L268.528,207.86z"/>
	<polygon fill-rule="evenodd" clip-rule="evenodd" fill="#FFBDFF" points="138.792,194.31 166.551,194.31 166.551,166.551 
		138.792,166.551 138.792,194.31 	"/>
	<polygon fill-rule="evenodd" clip-rule="evenodd" fill="#FCF3E4" points="152.671,192.28 164.522,180.431 152.671,168.58 
		140.821,180.431 152.671,192.28 	"/>
	<path fill-rule="evenodd" clip-rule="evenodd" fill="#CCCCCC" d="M212.014,175.614l2.523,0.772
		c0.889,0.271,1.571,0.941,1.858,1.826c0.287,0.882,0.128,1.829-0.43,2.569l-1.588,2.108l0.045,2.639
		c0.016,0.928-0.412,1.785-1.163,2.331c-0.746,0.542-1.705,0.686-2.577,0.386l-2.495-0.858l-2.495,0.858
		c-0.872,0.3-1.832,0.156-2.577-0.386c-0.751-0.546-1.179-1.403-1.163-2.331l0.046-2.639l-1.588-2.108
		c-0.558-0.74-0.716-1.688-0.43-2.569c0.287-0.885,0.969-1.555,1.858-1.826l2.523-0.772l1.514-2.161
		c0.534-0.762,1.381-1.203,2.312-1.203s1.778,0.441,2.311,1.203L212.014,175.614L212.014,175.614z"/>
	<polygon fill-rule="evenodd" clip-rule="evenodd" fill="#FFF28F" points="194.309,138.793 166.551,138.793 180.43,152.672 
		194.309,138.793 	"/>
	<path fill-rule="evenodd" clip-rule="evenodd" fill="#B3B3B3" d="M138.792,138.793v5.552h27.759v-5.552H138.792L138.792,138.793z
		 M138.792,160.999v5.552h27.759v-5.552H138.792L138.792,160.999z M138.792,149.896v5.552h27.759v-5.552H138.792L138.792,149.896z"
		/>
	<polygon fill-rule="evenodd" clip-rule="evenodd" fill="#FFF28F" points="194.309,166.551 166.551,166.551 180.43,152.672 
		194.309,166.551 	"/>
	<path fill-rule="evenodd" clip-rule="evenodd" fill="#FFFFCC" d="M235.947,190.245L235.947,190.245
		c1.799,0,3.271-1.473,3.271-3.271v-3.271h3.271c1.799,0,3.271-1.473,3.271-3.271l0,0c0-1.8-1.472-3.271-3.271-3.271h-3.271v-3.271
		c0-1.8-1.472-3.272-3.271-3.272l0,0c-1.799,0-3.271,1.473-3.271,3.272v3.271h-3.271c-1.799,0-3.271,1.472-3.271,3.271l0,0
		c0,1.799,1.472,3.271,3.271,3.271h3.271v3.271C232.675,188.772,234.147,190.245,235.947,190.245L235.947,190.245z"/>
	<path fill-rule="evenodd" clip-rule="evenodd" fill="#FFFFCC" d="M257.798,181.598v-5.047c0-0.603-0.498-1.1-1.1-1.1
		c-0.603,0-1.1,0.497-1.1,1.1v10.095c0,0.681-0.555,1.235-1.236,1.235c-0.681,0-1.236-0.555-1.236-1.235v-10.095
		c0-1.967,1.604-3.571,3.572-3.571c1.967,0,3.572,1.604,3.572,3.571v7.759c0,0.603,0.497,1.1,1.1,1.1c0.603,0,1.1-0.497,1.1-1.1
		v-0.925v-1.675v-5.159c0-1.967,1.605-3.571,3.572-3.571c1.967,0,3.572,1.604,3.572,3.571v2.712v5.047c0,0.603,0.498,1.1,1.1,1.1
		s1.1-0.497,1.1-1.1v-10.095c0-0.681,0.555-1.235,1.236-1.235s1.236,0.555,1.236,1.235v10.095c0,1.967-1.605,3.571-3.572,3.571
		s-3.572-1.604-3.572-3.571v-7.759c0-0.603-0.498-1.1-1.1-1.1s-1.1,0.497-1.1,1.1v5.159v1.675v0.925
		c0,1.967-1.604,3.571-3.571,3.571c-1.967,0-3.572-1.604-3.572-3.571V181.598L257.798,181.598z"/>
	<path fill-rule="evenodd" clip-rule="evenodd" fill="#FFFFFF" d="M263.705,162.316c5.327,0,9.645-4.318,9.645-9.645
		s-4.318-9.645-9.645-9.645c-5.326,0-9.645,4.318-9.645,9.645S258.379,162.316,263.705,162.316L263.705,162.316z"/>
	<path fill-rule="evenodd" clip-rule="evenodd" fill="#B3B3B3" d="M263.705,154.827c1.19,0,2.156-0.965,2.156-2.155
		s-0.965-2.156-2.156-2.156s-2.155,0.966-2.155,2.156S262.515,154.827,263.705,154.827L263.705,154.827z"/>
	<polygon fill-rule="evenodd" clip-rule="evenodd" fill="#FF6699" points="83.275,138.793 111.034,138.793 111.034,111.034 
		83.275,111.034 83.275,138.793 	"/>
	<path fill-rule="evenodd" clip-rule="evenodd" fill="#FFFFCC" d="M97.154,115.838c0.464,4.795,4.279,8.61,9.075,9.074
		c-4.796,0.465-8.611,4.28-9.075,9.077c-0.463-4.797-4.279-8.612-9.075-9.077C92.875,124.448,96.69,120.633,97.154,115.838
		L97.154,115.838z"/>
	<polygon fill-rule="evenodd" clip-rule="evenodd" fill="#E6E6E6" points="55.517,83.275 83.275,83.275 83.275,111.034 
		55.517,111.034 55.517,83.275 	"/>
	<polygon fill-rule="evenodd" clip-rule="evenodd" fill="#F07233" points="55.517,83.275 41.638,83.275 41.638,97.155 
		55.517,97.155 55.517,83.275 	"/>
	<polygon fill-rule="evenodd" clip-rule="evenodd" fill="#F07233" points="41.638,97.155 27.758,97.155 27.758,111.034 
		41.638,111.034 41.638,97.155 	"/>
	<polygon fill-rule="evenodd" clip-rule="evenodd" fill="#CC99FF" points="27.758,55.518 55.517,55.518 55.517,83.275 
		27.758,83.275 27.758,55.518 	"/>
	<polygon fill-rule="evenodd" clip-rule="evenodd" fill="#C2F3FF" points="0,55.518 27.758,55.518 27.758,83.275 0,83.275 0,55.518 
			"/>
	<polygon fill-rule="evenodd" clip-rule="evenodd" fill="#FFFFFF" points="111.034,55.518 138.792,55.518 138.792,83.275 
		111.034,83.275 111.034,55.518 	"/>
	<polygon fill-rule="evenodd" clip-rule="evenodd" fill="#FFFFCC" points="111.034,27.759 138.792,27.759 124.913,41.638 
		111.034,27.759 	"/>
	<polygon fill-rule="evenodd" clip-rule="evenodd" fill="#FF5792" points="111.034,55.518 138.792,55.518 124.913,41.638 
		111.034,55.518 	"/>
	<polygon fill-rule="evenodd" clip-rule="evenodd" fill="#FECD4D" points="111.034,55.518 111.034,27.759 124.913,41.638 
		111.034,55.518 	"/>
	<polygon fill-rule="evenodd" clip-rule="evenodd" fill="#9CE9FC" points="138.792,55.518 138.792,27.759 124.913,41.638 
		138.792,55.518 	"/>
	<polygon fill-rule="evenodd" clip-rule="evenodd" fill="#FECD4D" points="55.517,27.759 55.517,0 27.758,0 27.758,27.759 
		55.517,27.759 	"/>
	<path fill-rule="evenodd" clip-rule="evenodd" fill="#CC99FF" d="M52.824,13.88c0-6.179-5.008-11.187-11.186-11.187
		c-6.178,0-11.186,5.008-11.186,11.187c0,6.178,5.008,11.186,11.186,11.186C47.815,25.065,52.824,20.058,52.824,13.88L52.824,13.88z
		"/>
	<path fill-rule="evenodd" clip-rule="evenodd" fill="#FFCCCC" d="M47.516,13.88c0-3.247-2.632-5.879-5.878-5.879
		s-5.878,2.632-5.878,5.879c0,3.246,2.632,5.878,5.878,5.878S47.516,17.126,47.516,13.88L47.516,13.88z"/>
	<polygon fill-rule="evenodd" clip-rule="evenodd" fill="#CD49FD" points="0,27.759 27.758,27.759 27.758,0 0,0 0,27.759 	"/>
	<path fill-rule="evenodd" clip-rule="evenodd" fill="#FAF7F2" d="M23.417,8.373L23.417,8.373c-1.089-1.887-3.46-2.597-5.394-1.671
		c-0.165-2.138-1.965-3.836-4.144-3.836l0,0c-2.178,0-3.979,1.698-4.144,3.836C7.802,5.776,5.431,6.486,4.342,8.373l0,0
		c-1.089,1.887-0.519,4.295,1.25,5.507c-1.769,1.211-2.339,3.62-1.25,5.506l0,0c1.089,1.887,3.46,2.598,5.394,1.671
		c0.165,2.138,1.966,3.836,4.144,3.836l0,0c2.178,0,3.979-1.698,4.144-3.836c1.934,0.927,4.305,0.216,5.394-1.671l0,0
		c1.089-1.886,0.519-4.295-1.25-5.506C23.936,12.668,24.506,10.26,23.417,8.373L23.417,8.373z"/>
	<path fill-rule="evenodd" clip-rule="evenodd" fill="#FF6699" d="M13.879,18.919c2.783,0,5.039-2.256,5.039-5.039
		s-2.256-5.039-5.039-5.039c-2.783,0-5.039,2.256-5.039,5.039S11.096,18.919,13.879,18.919L13.879,18.919z"/>
	<polygon fill-rule="evenodd" clip-rule="evenodd" fill="#FFCCCC" points="0,55.518 27.758,55.518 27.758,27.759 0,27.759 0,55.518 
			"/>
	<polygon fill-rule="evenodd" clip-rule="evenodd" fill="#E6E6E6" points="27.758,55.518 55.517,55.518 55.517,27.759 
		27.758,27.759 27.758,55.518 	"/>
	<polygon fill-rule="evenodd" clip-rule="evenodd" fill="#FFF28F" points="55.517,55.518 83.275,55.518 83.275,27.759 
		55.517,27.759 55.517,55.518 	"/>
	<polygon fill-rule="evenodd" clip-rule="evenodd" fill="#CD49FD" points="83.275,55.518 111.034,55.518 111.034,27.759 
		83.275,27.759 83.275,55.518 	"/>
	<polygon fill-rule="evenodd" clip-rule="evenodd" fill="#FFCCCC" points="111.034,55.518 138.792,55.518 138.792,83.275 
		111.034,83.275 111.034,55.518 	"/>
	<polygon fill-rule="evenodd" clip-rule="evenodd" fill="#855CFF" points="55.517,55.518 83.275,55.518 83.275,83.275 
		55.517,83.275 55.517,55.518 	"/>
	<polygon fill-rule="evenodd" clip-rule="evenodd" fill="#A485FF" points="27.758,111.034 55.517,111.034 55.517,138.793 
		27.758,138.793 27.758,111.034 	"/>
	<polygon fill-rule="evenodd" clip-rule="evenodd" fill="#FEA698" points="55.517,111.034 83.275,111.034 83.275,138.793 
		55.517,138.793 55.517,111.034 	"/>
	<path fill-rule="evenodd" clip-rule="evenodd" fill="#FFFFFF" d="M61.145,115.995l7.779,7.779v-11.002
		c0.157-0.006,0.314-0.01,0.472-0.01s0.315,0.004,0.472,0.01v11.002l7.779-7.779c0.23,0.214,0.453,0.437,0.667,0.667l-7.779,7.779
		h11.001c0.006,0.156,0.01,0.313,0.01,0.472s-0.004,0.315-0.01,0.473H70.536l7.779,7.778c-0.214,0.231-0.437,0.454-0.667,0.668
		l-7.779-7.779v11.001c-0.157,0.007-0.314,0.011-0.472,0.011s-0.315-0.004-0.472-0.011v-11.001l-7.779,7.779
		c-0.231-0.214-0.454-0.437-0.667-0.668l7.779-7.778H57.255c-0.006-0.157-0.01-0.314-0.01-0.473s0.004-0.315,0.01-0.472h11.001
		l-7.779-7.779C60.691,116.432,60.914,116.209,61.145,115.995L61.145,115.995z"/>
	<polygon fill-rule="evenodd" clip-rule="evenodd" fill="#FCF3E4" points="83.275,55.518 111.034,55.518 111.034,83.275 
		83.275,83.275 83.275,55.518 	"/>
	<path fill-rule="evenodd" clip-rule="evenodd" fill="#BDBDFF" d="M83.275,55.518h3.084l24.674,24.674v3.084h-3.084L83.275,58.602
		V55.518L83.275,55.518z M92.528,55.518h6.168l12.337,12.337v6.168L92.528,55.518L92.528,55.518z M104.865,55.518h6.168l0,0v6.168
		L104.865,55.518L104.865,55.518z M101.781,83.275h-6.169L83.275,70.938v-6.168L101.781,83.275L101.781,83.275z M89.444,83.275
		h-6.168l0,0v-6.168L89.444,83.275L89.444,83.275z"/>
	<polygon fill-rule="evenodd" clip-rule="evenodd" fill="#FFC95E" points="111.034,83.275 83.275,83.275 83.275,111.034 
		111.034,111.034 111.034,83.275 	"/>
	<polygon fill-rule="evenodd" clip-rule="evenodd" fill="#99CCCC" points="138.792,83.275 111.034,83.275 111.034,111.034 
		138.792,111.034 138.792,83.275 	"/>
	<polygon fill-rule="evenodd" clip-rule="evenodd" fill="#E6E6E6" points="111.034,111.034 138.792,111.034 138.792,138.793 
		111.034,138.793 111.034,111.034 	"/>
	<polygon fill-rule="evenodd" clip-rule="evenodd" fill="#FF99FF" points="55.517,0 83.275,0 83.275,27.759 55.517,27.759 55.517,0 
			"/>
	<polygon fill-rule="evenodd" clip-rule="evenodd" fill="#99FFFF" points="83.275,27.759 55.517,27.759 69.396,13.88 83.275,27.759 
			"/>
	<polygon fill-rule="evenodd" clip-rule="evenodd" fill="#99FFFF" points="83.275,13.88 55.517,13.88 69.396,0 83.275,13.88 	"/>
	<polygon fill-rule="evenodd" clip-rule="evenodd" fill="#FF9966" points="83.275,0 111.034,0 111.034,27.759 83.275,27.759 
		83.275,0 	"/>
	<path fill-rule="evenodd" clip-rule="evenodd" fill="#FFFFFF" d="M100.64,9.934l5.054,0.129c0.816,0.021,1.515,0.542,1.768,1.319
		c0.251,0.772-0.01,1.612-0.655,2.106l-4.013,3.075l1.439,4.846c0.231,0.781-0.049,1.61-0.708,2.089
		c-0.661,0.48-1.533,0.491-2.206,0.028l-4.165-2.866l-4.165,2.866c-0.673,0.463-1.545,0.452-2.206-0.028
		c-0.659-0.479-0.94-1.308-0.708-2.089l1.439-4.846l-4.013-3.075c-0.645-0.494-0.906-1.334-0.655-2.106
		c0.252-0.777,0.951-1.298,1.768-1.319l5.054-0.129l1.685-4.767c0.272-0.771,0.984-1.273,1.801-1.273s1.528,0.503,1.801,1.273
		L100.64,9.934L100.64,9.934z"/>
	<polygon fill-rule="evenodd" clip-rule="evenodd" fill="#E3E371" points="111.034,0 138.792,0 138.792,27.759 111.034,27.759 
		111.034,0 	"/>
	<path fill-rule="evenodd" clip-rule="evenodd" fill="#FFFF99" d="M117.309,6.275L117.309,6.275c1.327-1.327,3.497-1.327,4.823,0
		l2.781,2.781l2.781-2.781c1.327-1.327,3.497-1.327,4.824,0l0,0c1.326,1.326,1.326,3.497,0,4.823l-2.781,2.781l2.781,2.78
		c1.326,1.327,1.326,3.497,0,4.824l0,0c-1.327,1.326-3.497,1.326-4.824,0l-2.781-2.781l-2.781,2.781
		c-1.326,1.326-3.497,1.326-4.823,0l0,0c-1.327-1.327-1.327-3.497,0-4.824l2.781-2.78l-2.781-2.781
		C115.982,9.772,115.982,7.602,117.309,6.275L117.309,6.275z"/>
	<polygon fill-rule="evenodd" clip-rule="evenodd" fill="#FFFF66" points="18.625,46.056 20.061,44.62 21.497,46.056 24.588,49.146 
		23.151,50.583 20.061,47.492 18.406,49.146 16.97,50.583 15.534,49.146 13.879,47.492 12.225,49.146 10.789,50.583 9.352,49.146 
		7.698,47.492 4.607,50.583 3.171,49.146 6.261,46.056 7.698,44.62 9.134,46.056 10.789,47.711 12.443,46.056 13.879,44.62 
		15.315,46.056 16.97,47.711 18.625,46.056 	"/>
	<polygon fill-rule="evenodd" clip-rule="evenodd" fill="#FFFF66" points="18.625,40.093 20.061,38.656 21.497,40.093 
		24.588,43.184 23.151,44.62 20.061,41.529 18.406,43.184 16.97,44.62 15.534,43.184 13.879,41.529 12.225,43.184 10.789,44.62 
		9.352,43.184 7.698,41.529 4.607,44.62 3.171,43.184 6.261,40.093 7.698,38.656 9.134,40.093 10.789,41.747 12.443,40.093 
		13.879,38.656 15.315,40.093 16.97,41.747 18.625,40.093 	"/>
	<polygon fill-rule="evenodd" clip-rule="evenodd" fill="#FFFF66" points="18.625,34.129 20.061,32.693 21.497,34.129 24.588,37.22 
		23.151,38.656 20.061,35.565 18.406,37.22 16.97,38.656 15.534,37.22 13.879,35.565 12.225,37.22 10.789,38.656 9.352,37.22 
		7.698,35.565 4.607,38.656 3.171,37.22 6.261,34.129 7.698,32.693 9.134,34.129 10.789,35.784 12.443,34.129 13.879,32.693 
		15.315,34.129 16.97,35.784 18.625,34.129 	"/>
	<path fill-rule="evenodd" clip-rule="evenodd" fill="#FFFFFF" d="M51.102,47.103L51.102,47.103
		c-0.22,0.381-0.712,0.513-1.093,0.293l-7.57-4.371v8.741c0,0.44-0.36,0.801-0.8,0.801l0,0c-0.44,0-0.801-0.36-0.801-0.801v-8.741
		l-7.57,4.371c-0.381,0.22-0.874,0.088-1.093-0.293l0,0c-0.221-0.382-0.089-0.874,0.292-1.094l7.57-4.371l-7.57-4.37
		c-0.381-0.221-0.513-0.712-0.293-1.094h0c0.22-0.381,0.711-0.514,1.093-0.293l7.57,4.371v-8.741c0-0.44,0.36-0.801,0.801-0.801l0,0
		c0.44,0,0.8,0.36,0.8,0.801v8.741l7.57-4.371c0.381-0.22,0.874-0.088,1.094,0.293l0,0c0.22,0.381,0.088,0.873-0.293,1.094
		l-7.57,4.37l7.57,4.371C51.19,46.229,51.322,46.721,51.102,47.103L51.102,47.103z"/>
	<path fill-rule="evenodd" clip-rule="evenodd" fill="#FFCCCC" d="M41.638,59.7c1.289,1.118,2.104,2.768,2.104,4.608
		s-0.815,3.49-2.104,4.608c-1.289-1.118-2.104-2.768-2.104-4.608S40.349,60.818,41.638,59.7L41.638,59.7z"/>
	<path fill-rule="evenodd" clip-rule="evenodd" fill="#FFCCCC" d="M31.442,67.107c1.462-0.88,3.283-1.146,5.034-0.577
		c1.75,0.568,3.067,1.854,3.732,3.426c-1.462,0.88-3.283,1.146-5.033,0.577C33.424,69.964,32.107,68.679,31.442,67.107
		L31.442,67.107z"/>
	<path fill-rule="evenodd" clip-rule="evenodd" fill="#FFCCCC" d="M35.336,79.093c-0.386-1.662-0.076-3.476,1.006-4.965
		s2.711-2.345,4.412-2.491c0.385,1.662,0.075,3.476-1.007,4.965C38.666,78.091,37.037,78.946,35.336,79.093L35.336,79.093z"/>
	<path fill-rule="evenodd" clip-rule="evenodd" fill="#FFCCCC" d="M47.939,79.093c-1.7-0.146-3.33-1.002-4.411-2.491
		c-1.082-1.489-1.392-3.303-1.007-4.965c1.7,0.146,3.33,1.002,4.412,2.491C48.014,75.617,48.324,77.431,47.939,79.093L47.939,79.093
		z"/>
	<path fill-rule="evenodd" clip-rule="evenodd" fill="#FFCCCC" d="M51.833,67.107c-0.666,1.571-1.982,2.856-3.733,3.426
		c-1.75,0.568-3.572,0.303-5.034-0.577c0.666-1.571,1.983-2.857,3.733-3.426C48.55,65.962,50.372,66.228,51.833,67.107
		L51.833,67.107z"/>
	<path fill-rule="evenodd" clip-rule="evenodd" fill="#FEA698" d="M61.356,33.918h2.297v15.44h-2.297V33.918L61.356,33.918z
		 M75.139,33.918h2.297v15.44h-2.297V33.918L75.139,33.918z M70.545,33.918h2.297v15.44h-2.297V33.918L70.545,33.918z
		 M65.951,33.918h2.297v15.44h-2.297V33.918L65.951,33.918z"/>
	<path fill-rule="evenodd" clip-rule="evenodd" fill="#FFFFCC" d="M88.987,36.45L88.987,36.45c1.392-1.392,3.669-1.392,5.061,0
		l3.106,3.106l3.106-3.106c1.392-1.392,3.67-1.392,5.062,0l0,0c1.392,1.393,1.392,3.67,0,5.062l-3.106,3.106l-5.062,5.062
		l-5.062-5.062l-3.105-3.106C87.595,40.12,87.595,37.843,88.987,36.45L88.987,36.45z"/>
	<path fill-rule="evenodd" clip-rule="evenodd" fill="#FFFF66" d="M13.879,60.904c4.69,0,8.492,3.803,8.492,8.492
		c0,4.69-3.802,8.492-8.492,8.492c-4.689,0-8.492-3.802-8.492-8.492C5.387,64.707,9.189,60.904,13.879,60.904L13.879,60.904z"/>
	<path fill-rule="evenodd" clip-rule="evenodd" fill="#FFFFCC" d="M64.352,59.811c2.508,0,4.542,2.033,4.542,4.542
		c0,2.508-2.033,4.541-4.542,4.541c-2.508,0-4.541-2.033-4.541-4.541C59.811,61.844,61.844,59.811,64.352,59.811L64.352,59.811z"/>
	<path fill-rule="evenodd" clip-rule="evenodd" fill="#FFFFCC" d="M64.352,69.899c2.508,0,4.542,2.033,4.542,4.541
		c0,2.509-2.033,4.542-4.542,4.542c-2.508,0-4.541-2.033-4.541-4.542C59.811,71.933,61.844,69.899,64.352,69.899L64.352,69.899z"/>
	<path fill-rule="evenodd" clip-rule="evenodd" fill="#FFFFCC" d="M74.44,59.811c2.508,0,4.541,2.033,4.541,4.542
		c0,2.508-2.033,4.541-4.541,4.541s-4.541-2.033-4.541-4.541C69.899,61.844,71.933,59.811,74.44,59.811L74.44,59.811z"/>
	<path fill-rule="evenodd" clip-rule="evenodd" fill="#FFFFCC" d="M74.44,69.899c2.508,0,4.541,2.033,4.541,4.541
		c0,2.509-2.033,4.542-4.541,4.542s-4.541-2.033-4.541-4.542C69.899,71.933,71.933,69.899,74.44,69.899L74.44,69.899z"/>
	<path fill-rule="evenodd" clip-rule="evenodd" fill="#FFFFCC" d="M122.716,73.887c0.098,1.576-0.112,3.163-0.627,4.662
		c-0.77,2.238-3.7,2.78-5.116,0.831c-0.933-1.284-0.7-3.072,0.594-4.016c0.083-0.063,0.166-0.126,0.25-0.187
		c1.244-0.903,2.617-1.541,4.042-1.912c-0.015-0.122-0.032-0.244-0.051-0.365c-0.208-1.34-0.651-2.611-1.296-3.766
		c-1.5,0.586-3.114,0.871-4.726,0.826c-0.279-0.009-0.555-0.056-0.82-0.142c-1.519-0.493-2.35-2.125-1.857-3.645
		c0.494-1.519,2.125-2.35,3.644-1.856c0.273,0.089,0.535,0.219,0.77,0.384c0.082,0.058,0.164,0.115,0.246,0.174
		c1.232,0.896,2.268,2,3.07,3.253c0.125-0.059,0.25-0.118,0.374-0.181c1.207-0.612,2.277-1.424,3.175-2.393
		c-1.008-1.225-1.784-2.661-2.251-4.25c-0.079-0.268-0.119-0.545-0.119-0.824c0-1.597,1.295-2.892,2.892-2.892
		c0.763,0,1.457,0.296,1.973,0.778c0.789,0.734,1.139,1.882,0.794,2.973c-0.024,0.097-0.055,0.193-0.085,0.288
		c-0.471,1.449-1.202,2.776-2.145,3.926c0.993,1.069,2.186,1.938,3.511,2.555c0.869-1.358,2.003-2.534,3.34-3.449
		c0.491-0.336,1.081-0.513,1.675-0.511c1.597,0.006,2.888,1.31,2.888,2.905c0,1.59-1.242,2.899-2.836,2.899
		c-0.105,0.003-0.211,0.004-0.317,0.004c-1.549,0-3.045-0.296-4.425-0.841c-0.068,0.121-0.133,0.244-0.196,0.367
		c-0.611,1.195-0.999,2.472-1.156,3.773c1.542,0.397,3.02,1.104,4.337,2.12c0.221,0.17,0.415,0.369,0.579,0.595
		c0.938,1.292,0.652,3.101-0.64,4.039c-0.256,0.187-0.534,0.324-0.821,0.417c-0.001,0-0.002,0-0.003,0.001
		c-1.092,0.354-2.245,0.03-2.989-0.747c-0.09-0.094-0.174-0.194-0.252-0.302c-0.005-0.007-0.009-0.014-0.014-0.021
		c-0.139-0.195-0.255-0.412-0.344-0.646c-0.014-0.022-0.026-0.048-0.036-0.075c-0.035-0.1-0.069-0.199-0.102-0.3
		c-0.473-1.456-0.661-2.966-0.571-4.458C125.636,73.601,124.155,73.603,122.716,73.887L122.716,73.887z M122.64,73.089
		c1.489-0.284,3.02-0.286,4.507-0.006c0.175-1.366,0.586-2.706,1.228-3.962c0.056-0.108,0.113-0.216,0.171-0.322
		c-1.365-0.646-2.597-1.544-3.63-2.642c-0.95,1.011-2.077,1.86-3.344,2.502c-0.107,0.055-0.216,0.107-0.325,0.158
		c0.669,1.218,1.129,2.555,1.348,3.96C122.612,72.881,122.626,72.985,122.64,73.089L122.64,73.089z M118.051,75.998
		c-0.003,0.003-0.007,0.006-0.011,0.009c-0.941,0.684-1.097,1.975-0.422,2.904c1.038,1.428,3.156,1.008,3.716-0.622
		c0.466-1.355,0.665-2.79,0.593-4.217c-1.283,0.352-2.519,0.935-3.642,1.751C118.207,75.881,118.129,75.938,118.051,75.998
		L118.051,75.998z M127.861,74.064c-0.065,1.349,0.113,2.712,0.541,4.027c0.018,0.055,0.035,0.108,0.054,0.162
		c0.016,0.025,0.028,0.053,0.038,0.083c0.099,0.305,0.262,0.57,0.468,0.788c0.717,0.751,1.916,0.865,2.774,0.241
		c0.936-0.68,1.144-1.989,0.463-2.925c-0.119-0.164-0.259-0.308-0.42-0.432C130.587,75.091,129.253,74.441,127.861,74.064
		L127.861,74.064z M127.009,60.555c-0.004-0.024-0.007-0.048-0.007-0.073c0-0.582-0.238-1.109-0.622-1.489
		c-0.226-0.222-0.505-0.396-0.824-0.5c-1.1-0.357-2.281,0.244-2.639,1.345c-0.004,0.012-0.009,0.024-0.014,0.036
		c-0.058,0.192-0.09,0.397-0.09,0.608c0,0.203,0.03,0.405,0.087,0.6c0.422,1.438,1.116,2.74,2.015,3.86
		c0.839-1.049,1.49-2.25,1.916-3.559c0.026-0.079,0.052-0.161,0.072-0.241c0.002-0.011,0.005-0.02,0.008-0.03
		C126.971,60.927,127.003,60.739,127.009,60.555L127.009,60.555z M129.702,68.425c1.253,0.478,2.606,0.735,4.005,0.735
		c0.099,0,0.198-0.001,0.296-0.004c0.004,0,0.007,0,0.01,0c1.164,0,2.048-0.952,2.048-2.102c0-1.156-0.935-2.103-2.093-2.107
		c-0.433-0.002-0.864,0.126-1.222,0.371C131.536,66.146,130.503,67.204,129.702,68.425L129.702,68.425z M120.09,68.441
		c-0.738-1.121-1.679-2.111-2.792-2.92c-0.078-0.057-0.157-0.111-0.235-0.167c-0.17-0.119-0.36-0.213-0.558-0.277
		c-1.1-0.357-2.281,0.244-2.639,1.345c-0.357,1.1,0.245,2.281,1.345,2.639c0.192,0.063,0.394,0.097,0.596,0.103
		C117.267,69.204,118.727,68.955,120.09,68.441L120.09,68.441z"/>
	<polygon fill-rule="evenodd" clip-rule="evenodd" fill="#FFBDFF" points="0,83.275 27.758,83.275 27.758,111.034 0,111.034 
		0,83.275 	"/>
	<polygon fill-rule="evenodd" clip-rule="evenodd" fill="#FCF3E4" points="13.879,85.305 25.729,97.155 13.879,109.005 
		2.029,97.155 13.879,85.305 	"/>
	<path fill-rule="evenodd" clip-rule="evenodd" fill="#CCCCCC" d="M73.221,92.444l2.524,0.771c0.889,0.272,1.571,0.942,1.858,1.827
		c0.287,0.882,0.128,1.829-0.43,2.569l-1.587,2.108l0.045,2.638c0.016,0.929-0.412,1.786-1.163,2.332
		c-0.746,0.542-1.705,0.686-2.577,0.386l-2.496-0.858l-2.495,0.858c-0.872,0.3-1.831,0.156-2.577-0.386
		c-0.751-0.546-1.179-1.403-1.163-2.332l0.045-2.638l-1.588-2.108c-0.558-0.74-0.716-1.688-0.43-2.569
		c0.288-0.885,0.969-1.555,1.858-1.827l2.523-0.771l1.514-2.161c0.533-0.763,1.381-1.203,2.311-1.203s1.778,0.44,2.312,1.203
		L73.221,92.444L73.221,92.444z"/>
	<polygon fill-rule="evenodd" clip-rule="evenodd" fill="#FFF28F" points="55.517,138.793 27.758,138.793 41.638,124.913 
		55.517,138.793 	"/>
	<path fill-rule="evenodd" clip-rule="evenodd" fill="#B3B3B3" d="M0,138.793v-5.552h27.758v5.552H0L0,138.793z M0,116.586v-5.552
		h27.758v5.552H0L0,116.586z M0,127.689v-5.552h27.758v5.552H0L0,127.689z"/>
	<polygon fill-rule="evenodd" clip-rule="evenodd" fill="#FFF28F" points="55.517,111.034 27.758,111.034 41.638,124.913 
		55.517,111.034 	"/>
	<path fill-rule="evenodd" clip-rule="evenodd" fill="#FFFFCC" d="M97.154,87.341L97.154,87.341c1.799,0,3.272,1.472,3.272,3.271
		v3.271h3.271c1.8,0,3.272,1.472,3.272,3.271l0,0c0,1.799-1.472,3.271-3.272,3.271h-3.271v3.271c0,1.799-1.473,3.271-3.272,3.271
		l0,0c-1.799,0-3.271-1.473-3.271-3.271v-3.271h-3.271c-1.8,0-3.272-1.473-3.272-3.271l0,0c0-1.8,1.472-3.271,3.272-3.271h3.271
		v-3.271C93.883,88.813,95.355,87.341,97.154,87.341L97.154,87.341z"/>
	<path fill-rule="evenodd" clip-rule="evenodd" fill="#FFFFCC" d="M119.005,95.987v5.047c0,0.603-0.498,1.1-1.1,1.1
		s-1.1-0.497-1.1-1.1V90.94c0-0.682-0.555-1.236-1.236-1.236c-0.681,0-1.236,0.555-1.236,1.236v10.094
		c0,1.967,1.605,3.572,3.572,3.572c1.967,0,3.572-1.605,3.572-3.572v-7.759c0-0.603,0.498-1.1,1.1-1.1s1.1,0.497,1.1,1.1v0.926
		v1.674v5.159c0,1.967,1.605,3.572,3.572,3.572c1.967,0,3.571-1.605,3.571-3.572v-2.711v-5.048c0-0.603,0.498-1.1,1.101-1.1
		c0.603,0,1.1,0.497,1.1,1.1v10.095c0,0.681,0.555,1.236,1.236,1.236s1.236-0.556,1.236-1.236V93.275
		c0-1.967-1.604-3.571-3.571-3.571c-1.967,0-3.572,1.604-3.572,3.571v7.759c0,0.603-0.497,1.1-1.1,1.1c-0.603,0-1.1-0.497-1.1-1.1
		v-5.159v-1.674v-0.926c0-1.967-1.605-3.571-3.572-3.571s-3.572,1.604-3.572,3.571V95.987L119.005,95.987z"/>
	<path fill-rule="evenodd" clip-rule="evenodd" fill="#FFFFFF" d="M124.913,115.269c5.326,0,9.645,4.318,9.645,9.645
		c0,5.327-4.318,9.645-9.645,9.645c-5.327,0-9.645-4.317-9.645-9.645C115.269,119.587,119.586,115.269,124.913,115.269
		L124.913,115.269z"/>
	<path fill-rule="evenodd" clip-rule="evenodd" fill="#B3B3B3" d="M124.913,122.758c1.19,0,2.156,0.965,2.156,2.155
		c0,1.191-0.965,2.156-2.156,2.156s-2.156-0.965-2.156-2.156C122.757,123.723,123.723,122.758,124.913,122.758L124.913,122.758z"/>
	<polygon fill-rule="evenodd" clip-rule="evenodd" fill="#FF6699" points="83.275,277.585 111.034,277.585 111.034,249.826 
		83.275,249.826 83.275,277.585 	"/>
	<path fill-rule="evenodd" clip-rule="evenodd" fill="#FFFFCC" d="M97.154,254.63c0.464,4.796,4.279,8.61,9.075,9.075
		c-4.796,0.464-8.611,4.28-9.075,9.076c-0.463-4.796-4.279-8.612-9.075-9.076C92.875,263.24,96.69,259.426,97.154,254.63
		L97.154,254.63z"/>
	<polygon fill-rule="evenodd" clip-rule="evenodd" fill="#E6E6E6" points="55.517,222.068 83.275,222.068 83.275,249.826 
		55.517,249.826 55.517,222.068 	"/>
	<polygon fill-rule="evenodd" clip-rule="evenodd" fill="#F07233" points="55.517,222.068 41.638,222.068 41.638,235.947 
		55.517,235.947 55.517,222.068 	"/>
	<polygon fill-rule="evenodd" clip-rule="evenodd" fill="#F07233" points="41.638,235.947 27.758,235.947 27.758,249.826 
		41.638,249.826 41.638,235.947 	"/>
	<polygon fill-rule="evenodd" clip-rule="evenodd" fill="#CC99FF" points="27.758,194.31 55.517,194.31 55.517,222.068 
		27.758,222.068 27.758,194.31 	"/>
	<polygon fill-rule="evenodd" clip-rule="evenodd" fill="#C2F3FF" points="0,194.31 27.758,194.31 27.758,222.068 0,222.068 
		0,194.31 	"/>
	<polygon fill-rule="evenodd" clip-rule="evenodd" fill="#FFFFFF" points="111.034,194.31 138.792,194.31 138.792,222.068 
		111.034,222.068 111.034,194.31 	"/>
	<polygon fill-rule="evenodd" clip-rule="evenodd" fill="#FFFFCC" points="111.034,166.551 138.792,166.551 124.913,180.431 
		111.034,166.551 	"/>
	<polygon fill-rule="evenodd" clip-rule="evenodd" fill="#FF5792" points="111.034,194.31 138.792,194.31 124.913,180.431 
		111.034,194.31 	"/>
	<polygon fill-rule="evenodd" clip-rule="evenodd" fill="#FECD4D" points="111.034,194.31 111.034,166.551 124.913,180.431 
		111.034,194.31 	"/>
	<polygon fill-rule="evenodd" clip-rule="evenodd" fill="#9CE9FC" points="138.792,194.31 138.792,166.551 124.913,180.431 
		138.792,194.31 	"/>
	<polygon fill-rule="evenodd" clip-rule="evenodd" fill="#FECD4D" points="55.517,166.551 55.517,138.793 27.758,138.793 
		27.758,166.551 55.517,166.551 	"/>
	<path fill-rule="evenodd" clip-rule="evenodd" fill="#CC99FF" d="M52.824,152.672c0-6.178-5.008-11.187-11.186-11.187
		c-6.178,0-11.186,5.009-11.186,11.187s5.008,11.187,11.186,11.187C47.815,163.858,52.824,158.85,52.824,152.672L52.824,152.672z"/>
	<path fill-rule="evenodd" clip-rule="evenodd" fill="#FFCCCC" d="M47.516,152.672c0-3.246-2.632-5.878-5.878-5.878
		s-5.878,2.632-5.878,5.878s2.632,5.879,5.878,5.879S47.516,155.918,47.516,152.672L47.516,152.672z"/>
	<polygon fill-rule="evenodd" clip-rule="evenodd" fill="#CD49FD" points="0,166.551 27.758,166.551 27.758,138.793 0,138.793 
		0,166.551 	"/>
	<path fill-rule="evenodd" clip-rule="evenodd" fill="#FAF7F2" d="M23.417,147.165L23.417,147.165
		c-1.089-1.886-3.46-2.597-5.394-1.67c-0.165-2.138-1.965-3.837-4.144-3.837l0,0c-2.178,0-3.979,1.698-4.144,3.837
		c-1.934-0.927-4.305-0.216-5.394,1.67l0,0c-1.089,1.887-0.519,4.295,1.25,5.507c-1.769,1.212-2.339,3.62-1.25,5.507l0,0
		c1.089,1.886,3.46,2.597,5.394,1.67c0.165,2.138,1.966,3.836,4.144,3.836l0,0c2.178,0,3.979-1.698,4.144-3.836
		c1.934,0.927,4.305,0.216,5.394-1.67l0,0c1.089-1.887,0.519-4.295-1.25-5.507C23.936,151.46,24.506,149.052,23.417,147.165
		L23.417,147.165z"/>
	<path fill-rule="evenodd" clip-rule="evenodd" fill="#FF6699" d="M13.879,157.711c2.783,0,5.039-2.256,5.039-5.039
		s-2.256-5.039-5.039-5.039c-2.783,0-5.039,2.256-5.039,5.039S11.096,157.711,13.879,157.711L13.879,157.711z"/>
	<polygon fill-rule="evenodd" clip-rule="evenodd" fill="#FFCCCC" points="0,194.31 27.758,194.31 27.758,166.551 0,166.551 
		0,194.31 	"/>
	<polygon fill-rule="evenodd" clip-rule="evenodd" fill="#E6E6E6" points="27.758,194.31 55.517,194.31 55.517,166.551 
		27.758,166.551 27.758,194.31 	"/>
	<polygon fill-rule="evenodd" clip-rule="evenodd" fill="#FFF28F" points="55.517,194.31 83.275,194.31 83.275,166.551 
		55.517,166.551 55.517,194.31 	"/>
	<polygon fill-rule="evenodd" clip-rule="evenodd" fill="#CD49FD" points="83.275,194.31 111.034,194.31 111.034,166.551 
		83.275,166.551 83.275,194.31 	"/>
	<polygon fill-rule="evenodd" clip-rule="evenodd" fill="#FFCCCC" points="111.034,194.31 138.792,194.31 138.792,222.068 
		111.034,222.068 111.034,194.31 	"/>
	<polygon fill-rule="evenodd" clip-rule="evenodd" fill="#855CFF" points="55.517,194.31 83.275,194.31 83.275,222.068 
		55.517,222.068 55.517,194.31 	"/>
	<polygon fill-rule="evenodd" clip-rule="evenodd" fill="#A485FF" points="27.758,249.826 55.517,249.826 55.517,277.585 
		27.758,277.585 27.758,249.826 	"/>
	<polygon fill-rule="evenodd" clip-rule="evenodd" fill="#FEA698" points="55.517,249.826 83.275,249.826 83.275,277.585 
		55.517,277.585 55.517,249.826 	"/>
	<path fill-rule="evenodd" clip-rule="evenodd" fill="#FFFFFF" d="M61.145,254.787l7.779,7.779v-11.002
		c0.157-0.006,0.314-0.01,0.472-0.01s0.315,0.004,0.472,0.01v11.002l7.779-7.779c0.23,0.214,0.453,0.437,0.667,0.667l-7.779,7.779
		h11.001c0.006,0.157,0.01,0.314,0.01,0.473s-0.004,0.315-0.01,0.472H70.536l7.779,7.779c-0.214,0.23-0.437,0.453-0.667,0.667
		l-7.779-7.779v11.002c-0.157,0.006-0.314,0.01-0.472,0.01s-0.315-0.004-0.472-0.01v-11.002l-7.779,7.779
		c-0.231-0.214-0.454-0.437-0.667-0.667l7.779-7.779H57.255c-0.006-0.156-0.01-0.313-0.01-0.472s0.004-0.315,0.01-0.473h11.001
		l-7.779-7.779C60.691,255.224,60.914,255.001,61.145,254.787L61.145,254.787z"/>
	<polygon fill-rule="evenodd" clip-rule="evenodd" fill="#FCF3E4" points="83.275,194.31 111.034,194.31 111.034,222.068 
		83.275,222.068 83.275,194.31 	"/>
	<path fill-rule="evenodd" clip-rule="evenodd" fill="#BDBDFF" d="M83.275,194.31h3.084l24.674,24.674v3.085h-3.084l-24.674-24.675
		V194.31L83.275,194.31z M92.528,194.31h6.168l12.337,12.337v6.169L92.528,194.31L92.528,194.31z M104.865,194.31h6.168l0,0v6.169
		L104.865,194.31L104.865,194.31z M101.781,222.068h-6.169L83.275,209.73v-6.168L101.781,222.068L101.781,222.068z M89.444,222.068
		h-6.168l0,0v-6.169L89.444,222.068L89.444,222.068z"/>
	<polygon fill-rule="evenodd" clip-rule="evenodd" fill="#FFC95E" points="111.034,222.068 83.275,222.068 83.275,249.826 
		111.034,249.826 111.034,222.068 	"/>
	<polygon fill-rule="evenodd" clip-rule="evenodd" fill="#99CCCC" points="138.792,222.068 111.034,222.068 111.034,249.826 
		138.792,249.826 138.792,222.068 	"/>
	<polygon fill-rule="evenodd" clip-rule="evenodd" fill="#E6E6E6" points="111.034,249.826 138.792,249.826 138.792,277.585 
		111.034,277.585 111.034,249.826 	"/>
	<polygon fill-rule="evenodd" clip-rule="evenodd" fill="#FF99FF" points="55.517,138.793 83.275,138.793 83.275,166.551 
		55.517,166.551 55.517,138.793 	"/>
	<polygon fill-rule="evenodd" clip-rule="evenodd" fill="#99FFFF" points="83.275,166.551 55.517,166.551 69.396,152.672 
		83.275,166.551 	"/>
	<polygon fill-rule="evenodd" clip-rule="evenodd" fill="#99FFFF" points="83.275,152.672 55.517,152.672 69.396,138.793 
		83.275,152.672 	"/>
	<polygon fill-rule="evenodd" clip-rule="evenodd" fill="#FF9966" points="83.275,138.793 111.034,138.793 111.034,166.551 
		83.275,166.551 83.275,138.793 	"/>
	<path fill-rule="evenodd" clip-rule="evenodd" fill="#FFFFFF" d="M100.64,148.726l5.054,0.129c0.816,0.021,1.515,0.543,1.768,1.319
		c0.251,0.772-0.01,1.612-0.655,2.106l-4.013,3.075l1.439,4.847c0.231,0.781-0.049,1.609-0.708,2.088
		c-0.661,0.48-1.533,0.491-2.206,0.028l-4.165-2.865l-4.165,2.865c-0.673,0.463-1.545,0.452-2.206-0.028
		c-0.659-0.479-0.94-1.307-0.708-2.088l1.439-4.847l-4.013-3.075c-0.645-0.494-0.906-1.334-0.655-2.106
		c0.252-0.776,0.951-1.298,1.768-1.319l5.054-0.129l1.685-4.767c0.272-0.771,0.984-1.273,1.801-1.273s1.528,0.503,1.801,1.273
		L100.64,148.726L100.64,148.726z"/>
	<polygon fill-rule="evenodd" clip-rule="evenodd" fill="#E3E371" points="111.034,138.793 138.792,138.793 138.792,166.551 
		111.034,166.551 111.034,138.793 	"/>
	<path fill-rule="evenodd" clip-rule="evenodd" fill="#FFFF99" d="M117.309,145.067L117.309,145.067
		c1.327-1.326,3.497-1.326,4.823,0l2.781,2.781l2.781-2.781c1.327-1.326,3.497-1.326,4.824,0l0,0c1.326,1.327,1.326,3.497,0,4.823
		l-2.781,2.781l2.781,2.781c1.326,1.326,1.326,3.496,0,4.823l0,0c-1.327,1.326-3.497,1.326-4.824,0l-2.781-2.781l-2.781,2.781
		c-1.326,1.326-3.497,1.326-4.823,0l0,0c-1.327-1.327-1.327-3.497,0-4.823l2.781-2.781l-2.781-2.781
		C115.982,148.564,115.982,146.395,117.309,145.067L117.309,145.067z"/>
	<polygon fill-rule="evenodd" clip-rule="evenodd" fill="#FFFF66" points="18.625,184.849 20.061,183.412 21.497,184.849 
		24.588,187.939 23.151,189.375 20.061,186.284 18.406,187.939 16.97,189.375 15.534,187.939 13.879,186.284 12.225,187.939 
		10.789,189.375 9.352,187.939 7.698,186.284 4.607,189.375 3.171,187.939 6.261,184.849 7.698,183.412 9.134,184.849 
		10.789,186.503 12.443,184.849 13.879,183.412 15.315,184.849 16.97,186.503 18.625,184.849 	"/>
	<polygon fill-rule="evenodd" clip-rule="evenodd" fill="#FFFF66" points="18.625,178.885 20.061,177.448 21.497,178.885 
		24.588,181.976 23.151,183.412 20.061,180.321 18.406,181.976 16.97,183.412 15.534,181.976 13.879,180.321 12.225,181.976 
		10.789,183.412 9.352,181.976 7.698,180.321 4.607,183.412 3.171,181.976 6.261,178.885 7.698,177.448 9.134,178.885 
		10.789,180.539 12.443,178.885 13.879,177.448 15.315,178.885 16.97,180.539 18.625,178.885 	"/>
	<polygon fill-rule="evenodd" clip-rule="evenodd" fill="#FFFF66" points="18.625,172.922 20.061,171.485 21.497,172.922 
		24.588,176.013 23.151,177.449 20.061,174.357 18.406,176.013 16.97,177.449 15.534,176.013 13.879,174.357 12.225,176.013 
		10.789,177.449 9.352,176.013 7.698,174.357 4.607,177.449 3.171,176.013 6.261,172.922 7.698,171.485 9.134,172.922 
		10.789,174.576 12.443,172.922 13.879,171.485 15.315,172.922 16.97,174.576 18.625,172.922 	"/>
	<path fill-rule="evenodd" clip-rule="evenodd" fill="#FFFFFF" d="M51.102,185.895L51.102,185.895
		c-0.22,0.381-0.712,0.513-1.093,0.293l-7.57-4.371v8.742c0,0.439-0.36,0.8-0.8,0.8l0,0c-0.44,0-0.801-0.36-0.801-0.8v-8.742
		l-7.57,4.371c-0.381,0.22-0.874,0.088-1.093-0.293l0,0c-0.221-0.382-0.089-0.873,0.292-1.094l7.57-4.37l-7.57-4.371
		c-0.381-0.22-0.513-0.712-0.293-1.094h0c0.22-0.381,0.711-0.513,1.093-0.293l7.57,4.371v-8.741c0-0.44,0.36-0.801,0.801-0.801l0,0
		c0.44,0,0.8,0.36,0.8,0.801v8.741l7.57-4.371c0.381-0.22,0.874-0.088,1.094,0.293l0,0c0.22,0.382,0.088,0.874-0.293,1.094
		l-7.57,4.371l7.57,4.37C51.19,185.021,51.322,185.513,51.102,185.895L51.102,185.895z"/>
	<path fill-rule="evenodd" clip-rule="evenodd" fill="#FFCCCC" d="M41.638,198.492c1.289,1.118,2.104,2.769,2.104,4.608
		c0,1.841-0.815,3.49-2.104,4.609c-1.289-1.119-2.104-2.769-2.104-4.609C39.533,201.261,40.349,199.61,41.638,198.492
		L41.638,198.492z"/>
	<path fill-rule="evenodd" clip-rule="evenodd" fill="#FFCCCC" d="M31.442,205.899c1.462-0.88,3.283-1.146,5.034-0.577
		c1.75,0.569,3.067,1.854,3.732,3.426c-1.462,0.88-3.283,1.146-5.033,0.577S32.107,207.471,31.442,205.899L31.442,205.899z"/>
	<path fill-rule="evenodd" clip-rule="evenodd" fill="#FFCCCC" d="M35.336,217.886c-0.386-1.662-0.076-3.477,1.006-4.966
		c1.082-1.488,2.711-2.345,4.412-2.491c0.385,1.662,0.075,3.477-1.007,4.965C38.666,216.883,37.037,217.738,35.336,217.886
		L35.336,217.886z"/>
	<path fill-rule="evenodd" clip-rule="evenodd" fill="#FFCCCC" d="M47.939,217.886c-1.7-0.147-3.33-1.003-4.411-2.492
		c-1.082-1.488-1.392-3.303-1.007-4.965c1.7,0.146,3.33,1.003,4.412,2.491C48.014,214.409,48.324,216.224,47.939,217.886
		L47.939,217.886z"/>
	<path fill-rule="evenodd" clip-rule="evenodd" fill="#FFCCCC" d="M51.833,205.899c-0.666,1.571-1.982,2.857-3.733,3.426
		s-3.572,0.303-5.034-0.577c0.666-1.571,1.983-2.856,3.733-3.426C48.55,204.754,50.372,205.02,51.833,205.899L51.833,205.899z"/>
	<path fill-rule="evenodd" clip-rule="evenodd" fill="#FEA698" d="M61.356,172.71h2.297v15.44h-2.297V172.71L61.356,172.71z
		 M75.139,172.71h2.297v15.44h-2.297V172.71L75.139,172.71z M70.545,172.71h2.297v15.44h-2.297V172.71L70.545,172.71z
		 M65.951,172.71h2.297v15.44h-2.297V172.71L65.951,172.71z"/>
	<path fill-rule="evenodd" clip-rule="evenodd" fill="#FFFFCC" d="M88.987,175.243L88.987,175.243c1.392-1.393,3.669-1.393,5.061,0
		l3.106,3.105l3.106-3.105c1.392-1.393,3.67-1.393,5.062,0l0,0c1.392,1.392,1.392,3.669,0,5.062l-3.106,3.105l-5.062,5.062
		l-5.062-5.062l-3.105-3.105C87.595,178.912,87.595,176.635,88.987,175.243L88.987,175.243z"/>
	<path fill-rule="evenodd" clip-rule="evenodd" fill="#FFFF66" d="M13.879,199.697c4.69,0,8.492,3.802,8.492,8.491
		c0,4.69-3.802,8.492-8.492,8.492c-4.689,0-8.492-3.802-8.492-8.492C5.387,203.499,9.189,199.697,13.879,199.697L13.879,199.697z"/>
	<path fill-rule="evenodd" clip-rule="evenodd" fill="#FFFFCC" d="M64.352,198.604c2.508,0,4.542,2.033,4.542,4.541
		s-2.033,4.541-4.542,4.541c-2.508,0-4.541-2.033-4.541-4.541S61.844,198.604,64.352,198.604L64.352,198.604z"/>
	<path fill-rule="evenodd" clip-rule="evenodd" fill="#FFFFCC" d="M64.352,208.692c2.508,0,4.542,2.032,4.542,4.541
		c0,2.508-2.033,4.541-4.542,4.541c-2.508,0-4.541-2.033-4.541-4.541C59.811,210.725,61.844,208.692,64.352,208.692L64.352,208.692z
		"/>
	<path fill-rule="evenodd" clip-rule="evenodd" fill="#FFFFCC" d="M74.44,198.604c2.508,0,4.541,2.033,4.541,4.541
		s-2.033,4.541-4.541,4.541s-4.541-2.033-4.541-4.541S71.933,198.604,74.44,198.604L74.44,198.604z"/>
	<path fill-rule="evenodd" clip-rule="evenodd" fill="#FFFFCC" d="M74.44,208.692c2.508,0,4.541,2.032,4.541,4.541
		c0,2.508-2.033,4.541-4.541,4.541s-4.541-2.033-4.541-4.541C69.899,210.725,71.933,208.692,74.44,208.692L74.44,208.692z"/>
	<path fill-rule="evenodd" clip-rule="evenodd" fill="#FFFFCC" d="M122.716,212.679c0.098,1.576-0.112,3.164-0.627,4.662
		c-0.77,2.239-3.7,2.78-5.116,0.831c-0.933-1.284-0.7-3.072,0.594-4.016c0.083-0.063,0.166-0.125,0.25-0.187
		c1.244-0.903,2.617-1.54,4.042-1.912c-0.015-0.122-0.032-0.243-0.051-0.365c-0.208-1.339-0.651-2.611-1.296-3.766
		c-1.5,0.586-3.114,0.872-4.726,0.826c-0.279-0.008-0.555-0.056-0.82-0.142c-1.519-0.493-2.35-2.125-1.857-3.644
		c0.494-1.519,2.125-2.351,3.644-1.856c0.273,0.088,0.535,0.219,0.77,0.384c0.082,0.058,0.164,0.114,0.246,0.174
		c1.232,0.896,2.268,2,3.07,3.252c0.125-0.058,0.25-0.118,0.374-0.181c1.207-0.611,2.277-1.424,3.175-2.393
		c-1.008-1.225-1.784-2.66-2.251-4.25c-0.079-0.267-0.119-0.545-0.119-0.823c0-1.597,1.295-2.893,2.892-2.893
		c0.763,0,1.457,0.296,1.973,0.778c0.789,0.734,1.139,1.882,0.794,2.973c-0.024,0.098-0.055,0.193-0.085,0.289
		c-0.471,1.448-1.202,2.775-2.145,3.925c0.993,1.069,2.186,1.938,3.511,2.556c0.869-1.359,2.003-2.535,3.34-3.45
		c0.491-0.336,1.081-0.513,1.675-0.51c1.597,0.006,2.888,1.309,2.888,2.904c0,1.59-1.242,2.899-2.836,2.899
		c-0.105,0.003-0.211,0.004-0.317,0.004c-1.549,0-3.045-0.296-4.425-0.84c-0.068,0.12-0.133,0.243-0.196,0.366
		c-0.611,1.196-0.999,2.473-1.156,3.773c1.542,0.397,3.02,1.105,4.337,2.12c0.221,0.171,0.415,0.369,0.579,0.595
		c0.938,1.292,0.652,3.101-0.64,4.04c-0.256,0.186-0.534,0.324-0.821,0.416c-0.001,0-0.002,0.001-0.003,0.001
		c-1.092,0.354-2.245,0.03-2.989-0.747c-0.09-0.093-0.174-0.193-0.252-0.302c-0.005-0.007-0.009-0.014-0.014-0.021
		c-0.139-0.195-0.255-0.411-0.344-0.646c-0.014-0.023-0.026-0.049-0.036-0.076c-0.035-0.1-0.069-0.199-0.102-0.3
		c-0.473-1.456-0.661-2.966-0.571-4.458C125.636,212.393,124.155,212.395,122.716,212.679L122.716,212.679z M122.64,211.881
		c1.489-0.284,3.02-0.285,4.507-0.005c0.175-1.367,0.586-2.707,1.228-3.962c0.056-0.109,0.113-0.217,0.171-0.323
		c-1.365-0.646-2.597-1.544-3.63-2.642c-0.95,1.012-2.077,1.86-3.344,2.502c-0.107,0.055-0.216,0.107-0.325,0.159
		c0.669,1.217,1.129,2.554,1.348,3.959C122.612,211.674,122.626,211.777,122.64,211.881L122.64,211.881z M118.051,214.791
		c-0.003,0.002-0.007,0.005-0.011,0.008c-0.941,0.684-1.097,1.975-0.422,2.904c1.038,1.428,3.156,1.009,3.716-0.621
		c0.466-1.356,0.665-2.79,0.593-4.217c-1.283,0.351-2.519,0.935-3.642,1.75C118.207,214.673,118.129,214.731,118.051,214.791
		L118.051,214.791z M127.861,212.856c-0.065,1.349,0.113,2.712,0.541,4.027c0.018,0.055,0.035,0.108,0.054,0.162
		c0.016,0.025,0.028,0.054,0.038,0.083c0.099,0.306,0.262,0.571,0.468,0.788c0.717,0.751,1.916,0.865,2.774,0.242
		c0.936-0.681,1.144-1.99,0.463-2.926c-0.119-0.164-0.259-0.308-0.42-0.432C130.587,213.883,129.253,213.234,127.861,212.856
		L127.861,212.856z M127.009,199.347c-0.004-0.023-0.007-0.048-0.007-0.072c0-0.583-0.238-1.11-0.622-1.49
		c-0.226-0.222-0.505-0.396-0.824-0.5c-1.1-0.357-2.281,0.244-2.639,1.345c-0.004,0.013-0.009,0.024-0.014,0.036
		c-0.058,0.192-0.09,0.397-0.09,0.609c0,0.202,0.03,0.404,0.087,0.599c0.422,1.438,1.116,2.741,2.015,3.86
		c0.839-1.048,1.49-2.25,1.916-3.559c0.026-0.079,0.052-0.16,0.072-0.241c0.002-0.011,0.005-0.02,0.008-0.03
		C126.971,199.719,127.003,199.531,127.009,199.347L127.009,199.347z M129.702,207.217c1.253,0.478,2.606,0.736,4.005,0.736
		c0.099,0,0.198-0.002,0.296-0.004c0.004,0,0.007,0,0.01,0c1.164-0.001,2.048-0.953,2.048-2.103c0-1.156-0.935-2.103-2.093-2.106
		c-0.433-0.002-0.864,0.125-1.222,0.37C131.536,204.938,130.503,205.997,129.702,207.217L129.702,207.217z M120.09,207.233
		c-0.738-1.121-1.679-2.111-2.792-2.919c-0.078-0.057-0.157-0.112-0.235-0.167c-0.17-0.12-0.36-0.214-0.558-0.278
		c-1.1-0.357-2.281,0.245-2.639,1.345c-0.357,1.101,0.245,2.281,1.345,2.639c0.192,0.063,0.394,0.097,0.596,0.103
		C117.267,207.997,118.727,207.747,120.09,207.233L120.09,207.233z"/>
	<polygon fill-rule="evenodd" clip-rule="evenodd" fill="#FFBDFF" points="0,222.068 27.758,222.068 27.758,249.826 0,249.826 
		0,222.068 	"/>
	<polygon fill-rule="evenodd" clip-rule="evenodd" fill="#FCF3E4" points="13.879,224.097 25.729,235.947 13.879,247.798 
		2.029,235.947 13.879,224.097 	"/>
	<path fill-rule="evenodd" clip-rule="evenodd" fill="#CCCCCC" d="M73.221,231.236l2.524,0.772c0.889,0.271,1.571,0.941,1.858,1.826
		c0.287,0.882,0.128,1.829-0.43,2.569l-1.587,2.108l0.045,2.639c0.016,0.929-0.412,1.786-1.163,2.331
		c-0.746,0.542-1.705,0.686-2.577,0.386l-2.496-0.858l-2.495,0.858c-0.872,0.3-1.831,0.156-2.577-0.386
		c-0.751-0.545-1.179-1.402-1.163-2.331l0.045-2.639l-1.588-2.108c-0.558-0.74-0.716-1.688-0.43-2.569
		c0.288-0.885,0.969-1.555,1.858-1.826l2.523-0.772l1.514-2.161c0.533-0.762,1.381-1.203,2.311-1.203s1.778,0.441,2.312,1.203
		L73.221,231.236L73.221,231.236z"/>
	<polygon fill-rule="evenodd" clip-rule="evenodd" fill="#FFF28F" points="55.517,277.585 27.758,277.585 41.638,263.706 
		55.517,277.585 	"/>
	<path fill-rule="evenodd" clip-rule="evenodd" fill="#B3B3B3" d="M0,277.585v-5.552h27.758v5.552H0L0,277.585z M0,255.378v-5.552
		h27.758v5.552H0L0,255.378z M0,266.481v-5.552h27.758v5.552H0L0,266.481z"/>
	<polygon fill-rule="evenodd" clip-rule="evenodd" fill="#FFF28F" points="55.517,249.826 27.758,249.826 41.638,263.706 
		55.517,249.826 	"/>
	<path fill-rule="evenodd" clip-rule="evenodd" fill="#FFFFCC" d="M97.154,226.133L97.154,226.133c1.799,0,3.272,1.473,3.272,3.271
		v3.271h3.271c1.8,0,3.272,1.472,3.272,3.271l0,0c0,1.8-1.472,3.271-3.272,3.271h-3.271v3.271c0,1.8-1.473,3.271-3.272,3.271l0,0
		c-1.799,0-3.271-1.472-3.271-3.271v-3.271h-3.271c-1.8,0-3.272-1.472-3.272-3.271l0,0c0-1.8,1.472-3.271,3.272-3.271h3.271v-3.271
		C93.883,227.605,95.355,226.133,97.154,226.133L97.154,226.133z"/>
	<path fill-rule="evenodd" clip-rule="evenodd" fill="#FFFFCC" d="M119.005,234.779v5.047c0,0.603-0.498,1.101-1.1,1.101
		s-1.1-0.498-1.1-1.101v-10.094c0-0.681-0.555-1.236-1.236-1.236c-0.681,0-1.236,0.556-1.236,1.236v10.094
		c0,1.967,1.605,3.572,3.572,3.572c1.967,0,3.572-1.605,3.572-3.572v-7.758c0-0.603,0.498-1.101,1.1-1.101s1.1,0.498,1.1,1.101
		v0.925v1.674v5.159c0,1.967,1.605,3.572,3.572,3.572c1.967,0,3.571-1.605,3.571-3.572v-2.711v-5.047
		c0-0.603,0.498-1.101,1.101-1.101c0.603,0,1.1,0.498,1.1,1.101v10.094c0,0.681,0.555,1.236,1.236,1.236s1.236-0.556,1.236-1.236
		v-10.094c0-1.967-1.604-3.572-3.571-3.572c-1.967,0-3.572,1.605-3.572,3.572v7.758c0,0.604-0.497,1.101-1.1,1.101
		c-0.603,0-1.1-0.497-1.1-1.101v-5.159v-1.674v-0.925c0-1.967-1.605-3.572-3.572-3.572s-3.572,1.605-3.572,3.572V234.779
		L119.005,234.779z"/>
	<path fill-rule="evenodd" clip-rule="evenodd" fill="#FFFFFF" d="M124.913,254.062c5.326,0,9.645,4.317,9.645,9.645
		c0,5.326-4.318,9.644-9.645,9.644c-5.327,0-9.645-4.317-9.645-9.644C115.269,258.379,119.586,254.062,124.913,254.062
		L124.913,254.062z"/>
	<path fill-rule="evenodd" clip-rule="evenodd" fill="#B3B3B3" d="M124.913,261.55c1.19,0,2.156,0.966,2.156,2.156
		s-0.965,2.155-2.156,2.155s-2.156-0.965-2.156-2.155S123.723,261.55,124.913,261.55L124.913,261.55z"/>
	<rect x="27.758" y="83.275" fill="#FFFFFF" width="13.879" height="13.88"/>
	<rect x="41.638" y="97.155" fill="#FFFFFF" width="13.879" height="13.879"/>
	<rect x="180.43" y="27.759" fill="#FFFFFF" width="13.879" height="13.879"/>
	<rect x="166.551" y="41.638" fill="#FFFFFF" width="13.879" height="13.88"/>
	<rect x="180.43" y="166.551" fill="#FFFFFF" width="13.879" height="13.88"/>
	<rect x="166.551" y="180.431" fill="#FFFFFF" width="13.879" height="13.879"/>
	<rect x="27.758" y="222.068" fill="#FFFFFF" width="13.879" height="13.879"/>
	<rect x="41.638" y="235.947" fill="#FFFFFF" width="13.879" height="13.879"/>
	<g>
		<path fill-rule="evenodd" clip-rule="evenodd" fill="#FFCCCC" d="M180.43,198.492c-1.289,1.118-2.104,2.769-2.104,4.608
			c0,1.841,0.815,3.49,2.104,4.609c1.289-1.119,2.104-2.769,2.104-4.609C182.534,201.261,181.719,199.61,180.43,198.492
			L180.43,198.492z"/>
		<path fill-rule="evenodd" clip-rule="evenodd" fill="#FFCCCC" d="M190.625,205.899c-1.462-0.88-3.283-1.146-5.033-0.577
			c-1.75,0.569-3.068,1.854-3.733,3.426c1.462,0.88,3.283,1.146,5.033,0.577S189.96,207.471,190.625,205.899L190.625,205.899z"/>
		<path fill-rule="evenodd" clip-rule="evenodd" fill="#FFCCCC" d="M186.731,217.886c0.386-1.663,0.075-3.477-1.006-4.966
			c-1.082-1.488-2.711-2.345-4.411-2.491c-0.386,1.662-0.075,3.476,1.006,4.965C183.402,216.883,185.031,217.738,186.731,217.886
			L186.731,217.886z"/>
		<path fill-rule="evenodd" clip-rule="evenodd" fill="#FFCCCC" d="M174.129,217.886c1.7-0.147,3.329-1.003,4.411-2.492
			c1.082-1.489,1.392-3.303,1.006-4.965c-1.7,0.146-3.33,1.003-4.411,2.491C174.053,214.409,173.743,216.223,174.129,217.886
			L174.129,217.886z"/>
		<path fill-rule="evenodd" clip-rule="evenodd" fill="#FFCCCC" d="M170.234,205.899c0.665,1.571,1.982,2.857,3.732,3.426
			c1.751,0.568,3.572,0.303,5.034-0.577c-0.666-1.571-1.982-2.856-3.733-3.426C173.517,204.754,171.696,205.02,170.234,205.899
			L170.234,205.899z"/>
	</g>
</g>
</svg>
